<svg id="svg" version="1.1" width="400" height="400" viewBox="0 0 400 400" xmlns="http://www.w3.org/2000/svg" xmlns:xlink="http://www.w3.org/1999/xlink"><g id="svgg"><path id="path0" d="M176.600 130.834 C 155.204 133.844,153.151 135.712,151.789 153.400 C 149.297 185.782,150.326 249.452,153.526 260.800 C 155.989 269.537,160.092 271.419,176.600 271.383 C 185.958 271.362,192.747 270.536,195.313 269.106 C 197.922 267.651,197.943 267.479,197.694 249.935 C 197.397 229.063,195.986 230.988,211.800 230.684 C 232.632 230.284,244.557 225.581,253.596 214.200 C 255.386 211.945,259.200 204.623,259.200 203.439 C 259.200 203.143,259.479 202.113,259.821 201.150 C 261.756 195.692,261.742 183.342,259.794 176.532 C 251.677 148.161,232.890 133.503,201.200 130.815 C 195.430 130.326,180.130 130.338,176.600 130.834 M211.600 170.670 C 223.899 173.227,226.912 187.589,216.200 192.596 C 210.406 195.305,194.606 196.875,191.780 195.023 C 189.013 193.211,188.677 177.825,191.301 173.118 C 193.090 169.909,202.488 168.776,211.600 170.670 M243.500 208.516 C 247.919 212.560,235.473 220.743,221.504 222.977 C 216.234 223.820,215.473 223.778,214.031 222.564 C 210.851 219.889,212.831 217.626,219.205 216.650 C 227.423 215.392,233.459 213.095,237.054 209.858 C 240.196 207.029,241.564 206.744,243.500 208.516 M189.279 232.421 C 189.980 233.364,190.056 234.554,190.282 248.088 L 190.527 262.735 189.294 263.967 C 187.765 265.496,186.664 265.526,185.217 264.078 L 184.095 262.956 183.807 253.178 C 183.353 237.719,183.571 232.913,184.769 231.944 C 186.120 230.851,188.283 231.080,189.279 232.421 " stroke="none" fill="#f54582" fill-rule="evenodd"></path><path id="path1" d="M187.083 68.650 C 186.929 68.804,185.497 69.074,183.902 69.251 C 180.384 69.639,176.460 70.244,173.900 70.793 C 169.480 71.740,168.529 71.960,167.200 72.343 C 166.430 72.565,165.350 72.865,164.800 73.010 C 158.289 74.726,147.797 78.867,140.000 82.797 C 132.938 86.357,131.862 86.945,131.025 87.700 C 130.598 88.085,130.047 88.400,129.800 88.400 C 129.553 88.400,128.993 88.715,128.555 89.100 C 127.810 89.755,127.378 90.031,125.104 91.300 C 124.612 91.575,123.916 92.115,123.557 92.500 C 123.199 92.885,122.779 93.200,122.625 93.200 C 122.470 93.200,122.106 93.425,121.816 93.700 C 120.615 94.840,119.567 95.600,119.195 95.600 C 118.978 95.600,118.800 95.780,118.800 96.000 C 118.800 96.220,118.648 96.400,118.462 96.400 C 117.438 96.400,96.400 117.181,96.400 118.192 C 96.400 118.418,95.381 119.695,94.200 120.950 C 93.760 121.418,93.145 122.295,92.832 122.900 C 92.520 123.505,92.115 124.000,91.932 124.000 C 91.750 124.000,91.600 124.270,91.600 124.600 C 91.600 124.930,91.420 125.200,91.200 125.200 C 90.980 125.200,90.800 125.470,90.800 125.800 C 90.800 126.130,90.620 126.400,90.400 126.400 C 90.180 126.400,90.000 126.636,90.000 126.925 C 90.000 127.213,89.685 127.798,89.300 128.225 C 88.915 128.651,88.345 129.495,88.032 130.100 C 87.720 130.705,87.315 131.200,87.132 131.200 C 86.950 131.200,86.800 131.545,86.800 131.967 C 86.800 132.388,86.665 132.793,86.500 132.867 C 86.036 133.073,82.186 140.497,80.002 145.400 C 77.827 150.280,77.311 151.485,76.830 152.800 C 76.549 153.570,76.171 154.560,75.990 155.000 C 75.809 155.440,75.089 157.690,74.389 160.000 C 73.690 162.310,72.970 164.560,72.789 165.000 C 72.608 165.440,72.349 166.340,72.212 167.000 C 72.076 167.660,71.782 168.920,71.560 169.800 C 70.535 173.862,70.020 176.629,69.141 182.800 C 68.553 186.926,68.254 214.014,68.790 214.550 C 69.015 214.775,69.200 216.173,69.200 217.656 C 69.200 219.139,69.380 220.464,69.600 220.600 C 69.820 220.736,70.000 221.726,70.000 222.800 C 70.000 223.874,70.161 224.852,70.358 224.974 C 70.555 225.095,70.814 225.871,70.935 226.697 C 71.350 229.534,71.655 231.001,71.997 231.800 C 72.358 232.642,72.713 234.131,73.073 236.304 C 73.191 237.021,73.449 237.706,73.644 237.827 C 73.840 237.948,74.000 238.476,74.000 239.000 C 74.000 239.524,74.180 240.064,74.400 240.200 C 74.620 240.336,74.800 240.799,74.800 241.229 C 74.800 241.659,74.967 242.323,75.171 242.705 C 75.375 243.087,76.350 245.478,77.337 248.018 C 78.907 252.055,79.924 254.451,81.741 258.395 C 81.994 258.942,82.875 260.514,83.700 261.888 C 84.525 263.262,85.200 264.659,85.200 264.993 C 85.200 265.327,85.380 265.600,85.600 265.600 C 85.820 265.600,86.000 265.960,86.000 266.400 C 86.000 266.840,86.180 267.200,86.400 267.200 C 86.620 267.200,86.800 267.520,86.800 267.912 C 86.800 268.303,87.160 268.883,87.600 269.200 C 88.040 269.517,88.400 270.097,88.400 270.488 C 88.400 270.880,88.550 271.200,88.732 271.200 C 88.915 271.200,89.320 271.695,89.632 272.300 C 89.945 272.905,90.515 273.749,90.900 274.175 C 91.285 274.602,91.600 275.099,91.600 275.279 C 91.600 275.460,92.140 276.172,92.800 276.863 C 93.460 277.554,94.000 278.270,94.000 278.455 C 94.000 278.775,94.814 279.872,95.900 281.016 C 96.175 281.306,96.400 281.643,96.400 281.765 C 96.400 282.748,113.853 300.365,116.502 302.055 C 116.722 302.196,116.786 302.498,116.645 302.728 C 116.503 302.957,116.598 303.275,116.855 303.434 C 117.148 303.615,117.216 303.550,117.038 303.262 C 116.452 302.313,117.720 302.844,118.800 304.000 C 119.417 304.660,120.119 305.200,120.360 305.200 C 120.602 305.200,120.800 305.380,120.800 305.600 C 120.800 305.820,120.978 306.000,121.195 306.000 C 121.546 306.000,122.145 306.421,123.757 307.800 C 124.507 308.442,126.540 309.630,127.300 309.871 C 127.685 309.993,128.000 310.252,128.000 310.447 C 128.000 310.641,128.270 310.800,128.600 310.800 C 128.930 310.800,129.200 310.980,129.200 311.200 C 129.200 311.420,129.470 311.600,129.800 311.600 C 130.130 311.600,130.400 311.780,130.400 312.000 C 130.400 312.220,130.636 312.400,130.925 312.400 C 131.213 312.400,131.836 312.760,132.308 313.200 C 132.780 313.640,133.463 314.000,133.826 314.000 C 134.242 314.000,134.402 314.217,134.260 314.587 C 134.136 314.910,134.235 315.298,134.479 315.449 C 134.748 315.615,134.811 315.541,134.638 315.262 C 134.458 314.970,134.656 314.800,135.176 314.800 C 135.629 314.800,136.000 314.946,136.000 315.125 C 136.000 315.304,136.630 315.698,137.400 316.000 C 138.170 316.302,138.800 316.696,138.800 316.875 C 138.800 317.054,139.160 317.200,139.600 317.200 C 140.040 317.200,140.400 317.380,140.400 317.600 C 140.400 317.820,140.653 318.000,140.962 318.000 C 141.271 318.000,142.306 318.386,143.262 318.857 C 144.218 319.328,145.360 319.850,145.800 320.016 C 146.240 320.182,147.275 320.607,148.100 320.959 C 148.925 321.312,150.275 321.885,151.100 322.234 C 151.925 322.582,152.913 323.032,153.295 323.234 C 153.677 323.435,154.262 323.600,154.595 323.600 C 154.928 323.600,155.200 323.780,155.200 324.000 C 155.200 324.220,155.740 324.400,156.400 324.400 C 157.060 324.400,157.600 324.580,157.600 324.800 C 157.600 325.020,158.039 325.200,158.576 325.200 C 159.113 325.200,159.664 325.380,159.800 325.600 C 159.936 325.820,160.519 326.000,161.095 326.000 C 162.166 326.000,164.449 326.620,165.695 327.249 C 166.077 327.442,166.921 327.600,167.571 327.600 C 168.221 327.600,168.864 327.780,169.000 328.000 C 169.136 328.220,169.921 328.400,170.744 328.400 C 171.567 328.400,172.411 328.563,172.620 328.761 C 172.829 328.960,173.810 329.225,174.800 329.350 C 175.790 329.475,177.860 329.773,179.400 330.013 C 180.940 330.252,183.550 330.534,185.200 330.638 C 186.850 330.742,188.564 331.010,189.009 331.233 C 190.477 331.968,218.164 331.173,218.980 330.373 C 219.189 330.168,220.303 330.000,221.456 330.000 C 222.609 330.000,223.664 329.820,223.800 329.600 C 223.936 329.380,224.937 329.200,226.024 329.200 C 227.111 329.200,228.000 329.020,228.000 328.800 C 228.000 328.580,228.810 328.400,229.800 328.400 C 230.790 328.400,231.600 328.220,231.600 328.000 C 231.600 327.780,232.219 327.600,232.976 327.600 C 233.733 327.600,234.464 327.420,234.600 327.200 C 234.736 326.980,235.366 326.800,236.000 326.800 C 236.634 326.800,237.264 326.620,237.400 326.400 C 237.536 326.180,238.076 326.000,238.600 326.000 C 239.124 326.000,239.664 325.820,239.800 325.600 C 239.936 325.380,240.566 325.200,241.200 325.200 C 241.834 325.200,242.464 325.020,242.600 324.800 C 242.736 324.580,243.297 324.400,243.847 324.400 C 244.501 324.400,244.748 324.560,244.562 324.862 C 244.389 325.141,244.452 325.215,244.721 325.049 C 244.965 324.898,245.064 324.510,244.940 324.187 C 244.778 323.766,245.002 323.600,245.734 323.600 C 246.294 323.600,246.864 323.420,247.000 323.200 C 247.136 322.980,247.597 322.800,248.024 322.800 C 248.451 322.800,248.800 322.620,248.800 322.400 C 248.800 322.180,249.155 322.000,249.588 322.000 C 250.021 322.000,251.017 321.640,251.800 321.200 C 252.583 320.760,253.489 320.400,253.812 320.400 C 254.135 320.400,254.400 320.220,254.400 320.000 C 254.400 319.780,254.760 319.600,255.200 319.600 C 255.640 319.600,256.000 319.420,256.000 319.200 C 256.000 318.980,256.360 318.800,256.800 318.800 C 257.240 318.800,257.600 318.620,257.600 318.400 C 257.600 318.180,258.050 318.000,258.600 318.000 C 259.150 318.000,259.600 317.854,259.600 317.675 C 259.600 317.496,260.230 317.102,261.000 316.800 C 261.770 316.498,262.400 316.104,262.400 315.925 C 262.400 315.746,262.771 315.600,263.224 315.600 C 263.744 315.600,263.942 315.770,263.762 316.062 C 263.589 316.341,263.652 316.415,263.921 316.249 C 264.165 316.098,264.264 315.710,264.140 315.387 C 263.986 314.985,264.181 314.800,264.757 314.800 C 265.221 314.800,265.600 314.620,265.600 314.400 C 265.600 314.180,265.870 314.000,266.200 314.000 C 266.530 314.000,266.800 313.820,266.800 313.600 C 266.800 313.380,267.160 313.200,267.600 313.200 C 268.040 313.200,268.400 313.020,268.400 312.800 C 268.400 312.580,268.720 312.400,269.112 312.400 C 269.503 312.400,270.083 312.040,270.400 311.600 C 270.717 311.160,271.257 310.800,271.600 310.800 C 271.943 310.800,272.483 310.440,272.800 310.000 C 273.117 309.560,273.657 309.200,274.000 309.200 C 274.343 309.200,274.883 308.840,275.200 308.400 C 275.517 307.960,276.025 307.600,276.328 307.600 C 276.631 307.600,277.383 307.060,278.000 306.400 C 278.617 305.740,279.337 305.200,279.600 305.200 C 279.863 305.200,280.583 304.660,281.200 304.000 C 281.817 303.340,282.515 302.800,282.752 302.800 C 282.989 302.800,284.864 301.135,286.918 299.100 C 288.973 297.065,291.811 294.303,293.227 292.963 C 294.642 291.623,296.970 289.209,298.400 287.599 C 299.830 285.988,301.225 284.443,301.500 284.164 C 301.775 283.885,302.000 283.556,302.000 283.433 C 302.000 283.168,303.042 281.870,304.300 280.568 C 304.795 280.056,305.200 279.448,305.200 279.218 C 305.200 278.988,305.380 278.800,305.600 278.800 C 305.820 278.800,306.000 278.596,306.000 278.347 C 306.000 278.098,306.316 277.603,306.703 277.247 C 307.089 276.891,307.660 276.105,307.970 275.500 C 308.281 274.895,308.685 274.400,308.868 274.400 C 309.050 274.400,309.200 274.130,309.200 273.800 C 309.200 273.470,309.380 273.200,309.600 273.200 C 309.820 273.200,310.000 272.930,310.000 272.600 C 310.000 272.270,310.180 272.000,310.400 272.000 C 310.620 272.000,310.800 271.764,310.800 271.475 C 310.800 271.187,311.160 270.564,311.600 270.092 C 312.040 269.620,312.400 268.956,312.400 268.617 C 312.400 268.278,312.536 268.000,312.702 268.000 C 312.869 268.000,313.259 267.415,313.570 266.700 C 313.881 265.985,314.251 265.310,314.392 265.200 C 315.078 264.663,320.928 252.145,322.990 246.800 C 324.629 242.551,324.742 242.219,325.993 238.000 C 326.482 236.350,327.044 234.687,327.241 234.305 C 327.438 233.923,327.600 233.079,327.600 232.429 C 327.600 231.779,327.761 231.148,327.958 231.026 C 328.294 230.818,328.506 229.789,329.053 225.700 C 329.178 224.765,329.415 224.000,329.580 224.000 C 329.745 224.000,329.914 222.886,329.955 221.524 C 329.995 220.162,330.182 218.857,330.369 218.624 C 331.320 217.440,331.689 191.352,330.847 184.800 C 330.607 182.930,330.302 180.320,330.170 179.000 C 330.038 177.680,329.765 176.429,329.565 176.220 C 329.364 176.011,329.200 175.214,329.200 174.448 C 329.200 173.683,329.032 172.504,328.827 171.828 C 328.622 171.153,328.264 169.880,328.030 169.000 C 327.500 166.996,326.231 162.657,325.105 159.000 C 323.769 154.657,319.403 144.328,316.566 138.797 C 315.155 136.046,314.000 133.653,314.000 133.481 C 314.000 133.308,313.640 132.780,313.200 132.308 C 312.760 131.836,312.400 131.213,312.400 130.925 C 312.400 130.636,312.220 130.400,312.000 130.400 C 311.780 130.400,311.600 130.080,311.600 129.688 C 311.600 129.297,311.240 128.717,310.800 128.400 C 310.360 128.083,310.000 127.503,310.000 127.112 C 310.000 126.720,309.850 126.400,309.668 126.400 C 309.485 126.400,309.081 125.905,308.770 125.300 C 308.460 124.695,307.889 123.909,307.503 123.553 C 307.116 123.197,306.800 122.702,306.800 122.453 C 306.800 122.204,306.620 122.000,306.400 122.000 C 306.180 122.000,306.000 121.807,306.000 121.571 C 306.000 121.336,305.775 120.906,305.500 120.616 C 304.620 119.689,303.600 118.397,303.600 118.209 C 303.600 117.351,282.600 96.400,281.740 96.400 C 281.557 96.400,280.080 95.175,278.968 94.100 C 278.456 93.605,277.798 93.200,277.506 93.200 C 277.215 93.200,276.717 92.840,276.400 92.400 C 276.083 91.960,275.593 91.600,275.312 91.600 C 275.030 91.600,274.800 91.420,274.800 91.200 C 274.800 90.980,274.530 90.800,274.200 90.800 C 273.870 90.800,273.600 90.620,273.600 90.400 C 273.600 90.180,273.364 90.000,273.075 90.000 C 272.787 90.000,272.194 89.685,271.758 89.300 C 270.753 88.412,268.809 87.217,267.900 86.929 C 267.515 86.807,267.200 86.548,267.200 86.353 C 267.200 86.159,266.982 86.000,266.716 86.000 C 266.450 86.000,263.435 84.579,260.016 82.842 C 251.596 78.565,242.403 74.905,235.600 73.122 C 234.830 72.920,233.570 72.571,232.800 72.347 C 232.030 72.123,230.635 71.773,229.700 71.570 C 228.765 71.366,227.145 71.010,226.100 70.779 C 223.654 70.236,220.517 69.672,217.000 69.142 C 213.794 68.658,187.507 68.226,187.083 68.650 M213.600 76.185 C 302.279 85.656,352.360 183.993,308.074 261.691 C 305.699 265.856,303.663 268.899,299.030 275.200 C 281.696 298.776,252.718 316.810,223.555 322.172 C 152.698 335.200,87.197 288.259,76.520 216.800 C 75.646 210.951,75.513 190.089,76.316 184.800 C 85.503 124.294,129.183 81.995,188.800 75.872 C 192.774 75.464,208.732 75.665,213.600 76.185 M176.600 123.625 C 158.561 125.465,149.708 130.121,146.604 139.400 C 142.017 153.111,142.009 246.702,146.593 264.132 C 148.468 271.259,152.115 274.761,160.294 277.289 C 167.154 279.409,192.316 278.536,197.733 275.990 C 204.690 272.719,205.476 270.096,204.811 252.367 C 204.234 236.972,204.068 237.817,207.595 238.145 C 217.584 239.073,233.339 236.274,242.200 231.996 C 285.089 211.289,273.411 144.383,224.050 128.018 C 212.279 124.116,191.054 122.150,176.600 123.625 M205.000 130.818 C 216.765 132.539,221.589 133.882,229.263 137.569 C 242.454 143.906,253.880 156.605,258.165 169.690 C 266.461 195.026,259.467 216.469,239.937 225.573 C 230.764 229.848,223.372 231.200,209.159 231.200 C 196.672 231.200,197.542 229.662,198.054 250.832 C 198.535 270.738,198.994 269.929,186.400 271.406 C 171.429 273.161,158.624 271.199,155.765 266.711 C 154.026 263.980,153.723 263.335,153.085 261.000 C 149.090 246.384,149.036 153.535,153.015 141.815 C 155.418 134.739,162.520 131.644,179.600 130.230 C 183.217 129.931,201.890 130.363,205.000 130.818 M194.740 170.942 C 190.992 172.118,190.284 174.307,190.236 184.866 L 190.200 192.740 191.375 193.970 L 192.550 195.200 198.975 195.200 C 212.987 195.200,219.829 192.231,221.855 185.273 C 223.762 178.723,219.618 172.869,211.742 170.988 C 208.859 170.299,196.892 170.267,194.740 170.942 M212.262 178.314 C 216.556 180.545,216.777 184.371,212.731 186.435 C 209.330 188.170,197.197 189.611,196.708 188.337 C 196.244 187.128,197.021 177.959,197.623 177.551 C 198.812 176.745,210.404 177.348,212.262 178.314 M239.600 208.256 C 239.050 208.632,237.850 209.618,236.934 210.447 C 232.834 214.155,228.184 215.727,216.200 217.452 C 212.240 218.023,212.521 223.200,216.512 223.200 C 226.841 223.200,244.000 215.337,244.000 210.604 C 244.000 208.354,241.448 206.993,239.600 208.256 M185.360 231.906 C 184.195 232.684,184.000 234.141,184.001 242.074 C 184.004 257.227,184.381 262.817,185.474 263.910 C 186.670 265.107,188.251 264.963,189.291 263.563 C 190.436 262.023,189.932 233.532,188.739 232.339 C 187.995 231.595,186.176 231.361,185.360 231.906 M105.800 294.000 C 107.106 295.320,108.265 296.400,108.375 296.400 C 108.485 296.400,107.506 295.320,106.200 294.000 C 104.894 292.680,103.735 291.600,103.625 291.600 C 103.515 291.600,104.494 292.680,105.800 294.000 " stroke="none" fill="#1a1712" fill-rule="evenodd"></path><path id="path2" d="M195.400 67.200 C 193.590 67.367,195.358 67.462,200.400 67.468 C 205.742 67.475,207.381 67.386,205.600 67.186 C 202.523 66.840,199.248 66.844,195.400 67.200 M185.200 68.000 C 184.770 68.278,185.189 68.389,186.676 68.394 C 187.818 68.397,188.846 68.249,188.960 68.064 C 189.254 67.589,185.925 67.532,185.200 68.000 M212.600 68.000 C 212.449 68.245,213.070 68.400,214.200 68.400 C 215.330 68.400,215.951 68.245,215.800 68.000 C 215.664 67.780,214.944 67.600,214.200 67.600 C 213.456 67.600,212.736 67.780,212.600 68.000 M178.601 68.798 C 178.449 69.044,179.050 69.200,180.153 69.200 C 182.493 69.200,182.845 68.630,180.586 68.498 C 179.631 68.443,178.737 68.578,178.601 68.798 M218.215 68.824 C 218.291 68.947,219.190 69.091,220.213 69.144 C 221.435 69.208,221.983 69.096,221.812 68.819 C 221.668 68.587,220.769 68.443,219.814 68.498 C 218.858 68.554,218.139 68.701,218.215 68.824 M174.200 69.600 C 174.053 69.839,174.537 70.000,175.400 70.000 C 176.263 70.000,176.747 69.839,176.600 69.600 C 176.464 69.380,175.924 69.200,175.400 69.200 C 174.876 69.200,174.336 69.380,174.200 69.600 M224.076 69.545 C 223.729 69.765,223.967 69.889,224.783 69.912 C 225.460 69.931,225.911 69.779,225.784 69.573 C 225.500 69.114,224.774 69.102,224.076 69.545 M170.200 70.400 C 170.053 70.638,170.490 70.789,171.276 70.772 C 172.379 70.748,172.467 70.686,171.800 70.400 C 170.715 69.934,170.488 69.934,170.200 70.400 M227.200 70.318 C 227.200 70.493,227.845 70.680,228.633 70.733 C 229.540 70.794,229.971 70.677,229.809 70.415 C 229.511 69.932,227.200 69.847,227.200 70.318 M167.000 71.200 C 166.859 71.428,167.204 71.600,167.800 71.600 C 168.396 71.600,168.741 71.428,168.600 71.200 C 168.464 70.980,168.104 70.800,167.800 70.800 C 167.496 70.800,167.136 70.980,167.000 71.200 M231.451 71.283 C 231.559 71.457,232.007 71.600,232.447 71.600 C 232.887 71.600,233.143 71.431,233.016 71.225 C 232.888 71.019,232.440 70.877,232.020 70.908 C 231.599 70.940,231.344 71.109,231.451 71.283 M163.784 72.025 C 163.657 72.231,163.913 72.400,164.353 72.400 C 165.396 72.400,165.777 71.784,164.780 71.708 C 164.360 71.677,163.912 71.819,163.784 72.025 M234.600 72.000 C 234.464 72.220,234.734 72.400,235.200 72.400 C 235.666 72.400,235.936 72.220,235.800 72.000 C 235.664 71.780,235.394 71.600,235.200 71.600 C 235.006 71.600,234.736 71.780,234.600 72.000 M161.200 72.757 C 161.200 73.121,162.738 73.224,162.954 72.875 C 163.047 72.724,162.691 72.574,162.162 72.542 C 161.633 72.511,161.200 72.607,161.200 72.757 M158.200 73.600 C 158.064 73.820,158.323 74.000,158.776 74.000 C 159.229 74.000,159.600 73.820,159.600 73.600 C 159.600 73.380,159.341 73.200,159.024 73.200 C 158.707 73.200,158.336 73.380,158.200 73.600 M186.800 77.006 C 154.693 80.607,125.606 96.086,105.338 120.358 C 101.793 124.603,94.800 134.288,94.800 134.953 C 94.800 135.067,94.280 135.934,93.644 136.880 C 78.775 159.010,72.648 196.571,79.075 226.200 C 89.810 275.685,131.034 314.492,180.800 321.960 C 272.330 335.695,345.319 250.246,317.541 161.876 C 300.224 106.786,244.399 70.547,186.800 77.006 M105.788 106.012 C 104.045 107.765,102.740 109.200,102.888 109.200 C 103.272 109.200,109.308 103.175,109.116 102.983 C 109.029 102.896,107.531 104.259,105.788 106.012 M292.400 104.507 C 292.400 104.652,293.599 105.993,295.066 107.486 C 296.661 109.111,297.237 109.558,296.501 108.600 C 295.136 106.825,292.400 104.094,292.400 104.507 M209.000 123.576 C 230.142 126.850,245.168 135.317,256.505 150.344 C 259.687 154.562,264.937 164.871,266.056 169.100 C 266.245 169.815,266.592 171.075,266.827 171.900 C 272.579 192.127,268.615 210.684,255.825 223.406 C 249.288 229.908,238.309 236.282,229.000 238.981 C 221.686 241.101,218.570 241.584,210.867 241.790 C 207.933 241.869,205.436 242.031,205.317 242.150 C 205.197 242.269,205.304 246.019,205.553 250.483 C 206.651 270.187,205.508 273.747,196.969 277.213 C 195.690 277.732,194.315 278.485,193.913 278.887 C 190.279 282.521,169.903 284.340,157.200 282.164 C 144.163 279.932,140.467 274.227,138.824 253.800 C 137.048 231.719,137.060 174.543,138.845 154.000 C 139.714 143.994,142.254 137.870,146.698 135.065 C 147.623 134.481,148.661 133.573,149.005 133.048 C 154.692 124.369,184.121 119.723,209.000 123.576 M327.600 165.600 C 327.600 166.347,327.707 166.453,328.080 166.080 C 328.453 165.707,328.453 165.493,328.080 165.120 C 327.707 164.747,327.600 164.853,327.600 165.600 M330.088 176.149 C 330.133 176.695,330.312 177.055,330.485 176.948 C 330.929 176.673,330.877 175.695,330.403 175.402 C 330.174 175.260,330.040 175.577,330.088 176.149 M330.877 181.400 C 330.947 183.269,331.600 183.673,331.600 181.847 C 331.600 181.077,331.425 180.339,331.212 180.207 C 330.985 180.067,330.846 180.563,330.877 181.400 M197.723 182.257 C 197.584 182.618,197.455 184.013,197.435 185.357 L 197.400 187.800 200.800 187.678 C 208.937 187.385,210.607 186.789,209.428 184.599 C 208.060 182.060,198.530 180.153,197.723 182.257 M331.600 188.576 C 331.600 189.359,331.780 190.000,332.000 190.000 C 332.220 190.000,332.400 189.471,332.400 188.824 C 332.400 188.177,332.220 187.536,332.000 187.400 C 331.762 187.253,331.600 187.729,331.600 188.576 M67.348 200.000 C 67.348 202.310,67.414 203.255,67.495 202.100 C 67.576 200.945,67.576 199.055,67.495 197.900 C 67.414 196.745,67.348 197.690,67.348 200.000 M331.600 207.376 C 331.600 207.693,331.780 208.064,332.000 208.200 C 332.220 208.336,332.400 208.077,332.400 207.624 C 332.400 207.171,332.220 206.800,332.000 206.800 C 331.780 206.800,331.600 207.059,331.600 207.376 M331.900 209.029 C 331.735 209.196,331.611 209.978,331.625 210.767 C 331.649 212.111,331.675 212.139,332.043 211.219 C 332.476 210.133,332.373 208.549,331.900 209.029 M330.877 217.900 C 330.812 219.012,330.893 219.245,331.189 218.800 C 331.666 218.082,331.731 216.400,331.282 216.400 C 331.107 216.400,330.924 217.075,330.877 217.900 M330.000 222.824 C 330.000 223.277,330.180 223.536,330.400 223.400 C 330.620 223.264,330.800 222.893,330.800 222.576 C 330.800 222.259,330.620 222.000,330.400 222.000 C 330.180 222.000,330.000 222.371,330.000 222.824 M329.200 227.224 C 329.200 227.677,329.380 227.936,329.600 227.800 C 329.820 227.664,330.000 227.293,330.000 226.976 C 330.000 226.659,329.820 226.400,329.600 226.400 C 329.380 226.400,329.200 226.771,329.200 227.224 M328.692 230.242 C 328.531 230.402,328.400 230.809,328.400 231.147 C 328.400 231.597,328.518 231.642,328.845 231.315 C 329.090 231.070,329.221 230.663,329.137 230.410 C 329.052 230.157,328.852 230.081,328.692 230.242 M293.295 293.527 C 290.597 296.275,288.446 298.579,288.514 298.648 C 288.583 298.716,290.968 296.439,293.814 293.586 C 296.660 290.734,298.811 288.429,298.594 288.465 C 298.377 288.501,295.993 290.779,293.295 293.527 " stroke="none" fill="#fbdc2c" fill-rule="evenodd"></path><path id="path3" d="M191.000 68.000 C 190.838 68.262,193.929 68.400,199.976 68.400 C 205.859 68.400,209.200 68.255,209.200 68.000 C 209.200 67.745,205.941 67.600,200.224 67.600 C 194.671 67.600,191.153 67.753,191.000 68.000 M183.400 68.800 C 183.098 69.288,185.463 69.288,186.600 68.800 C 187.204 68.541,186.940 68.449,185.524 68.428 C 184.492 68.413,183.536 68.580,183.400 68.800 M214.200 68.800 C 215.320 69.281,217.600 69.281,217.600 68.800 C 217.600 68.580,216.655 68.413,215.500 68.428 C 213.958 68.449,213.612 68.548,214.200 68.800 M177.600 69.675 C 177.600 70.136,180.081 70.067,180.800 69.586 C 181.237 69.294,180.883 69.207,179.500 69.267 C 178.455 69.312,177.600 69.496,177.600 69.675 M220.000 69.600 C 220.788 70.109,222.400 70.109,222.400 69.600 C 222.400 69.380,221.725 69.203,220.900 69.206 C 219.784 69.211,219.554 69.312,220.000 69.600 M173.600 70.400 C 173.600 70.878,174.688 70.878,175.800 70.400 C 176.442 70.124,176.303 70.051,175.100 70.028 C 174.275 70.013,173.600 70.180,173.600 70.400 M224.400 70.400 C 225.186 70.908,226.400 70.908,226.400 70.400 C 226.400 70.180,225.815 70.003,225.100 70.006 C 224.114 70.011,223.945 70.106,224.400 70.400 M170.000 71.200 C 170.000 71.708,171.214 71.708,172.000 71.200 C 172.455 70.906,172.286 70.811,171.300 70.806 C 170.585 70.803,170.000 70.980,170.000 71.200 M228.000 71.189 C 228.725 71.671,229.879 71.720,230.151 71.280 C 230.259 71.104,229.685 70.922,228.874 70.875 C 227.778 70.812,227.554 70.892,228.000 71.189 M167.000 72.000 C 166.685 72.509,167.612 72.509,168.400 72.000 C 168.888 71.685,168.836 71.611,168.124 71.606 C 167.642 71.603,167.136 71.780,167.000 72.000 M231.600 72.000 C 232.386 72.508,233.600 72.508,233.600 72.000 C 233.600 71.780,233.015 71.603,232.300 71.606 C 231.314 71.611,231.145 71.706,231.600 72.000 M163.600 72.800 C 163.600 73.308,164.814 73.308,165.600 72.800 C 166.055 72.506,165.886 72.411,164.900 72.406 C 164.185 72.403,163.600 72.580,163.600 72.800 M234.400 72.800 C 235.182 73.306,236.288 73.306,236.600 72.800 C 236.748 72.560,236.239 72.402,235.324 72.406 C 234.193 72.411,233.955 72.512,234.400 72.800 M160.800 73.600 C 160.800 73.820,160.260 74.000,159.600 74.000 C 158.940 74.000,158.400 74.180,158.400 74.400 C 158.400 74.950,159.065 74.862,161.400 74.000 C 163.300 73.299,163.335 73.260,162.100 73.231 C 161.385 73.214,160.800 73.380,160.800 73.600 M236.833 73.358 C 236.925 73.446,239.160 74.235,241.800 75.112 C 247.892 77.137,252.564 79.079,258.518 82.061 C 261.113 83.361,263.436 84.301,263.680 84.150 C 263.937 83.992,264.012 84.058,263.858 84.307 C 263.587 84.744,265.666 86.000,266.661 86.000 C 266.958 86.000,267.200 86.159,267.200 86.353 C 267.200 86.548,267.515 86.807,267.900 86.929 C 268.813 87.218,270.755 88.413,271.769 89.310 C 272.211 89.700,272.803 89.931,273.086 89.822 C 273.369 89.714,273.600 89.889,273.600 90.213 C 273.600 90.536,273.855 90.800,274.167 90.800 C 274.478 90.800,274.814 91.025,274.912 91.300 C 275.010 91.575,275.224 91.676,275.388 91.524 C 275.733 91.204,273.848 89.200,273.201 89.200 C 272.962 89.200,272.380 88.840,271.908 88.400 C 271.436 87.960,270.813 87.600,270.525 87.600 C 270.236 87.600,270.000 87.420,270.000 87.200 C 270.000 86.980,269.640 86.800,269.200 86.800 C 268.760 86.800,268.399 86.665,268.397 86.500 C 268.393 86.163,266.475 85.200,265.809 85.200 C 265.571 85.200,265.117 84.840,264.800 84.400 C 264.483 83.960,263.813 83.600,263.312 83.600 C 262.810 83.600,262.400 83.454,262.400 83.275 C 262.400 83.096,261.770 82.702,261.000 82.400 C 260.230 82.098,259.600 81.748,259.600 81.622 C 259.600 81.496,259.221 81.156,258.758 80.867 C 258.295 80.578,258.036 80.534,258.182 80.770 C 258.328 81.007,258.300 81.200,258.120 81.200 C 257.940 81.200,257.568 80.840,257.293 80.400 C 256.974 79.890,256.360 79.600,255.597 79.600 C 254.938 79.600,254.400 79.420,254.400 79.200 C 254.400 78.980,253.950 78.800,253.400 78.800 C 252.850 78.800,252.400 78.620,252.400 78.400 C 252.400 78.180,251.950 78.000,251.400 78.000 C 250.850 78.000,250.400 77.820,250.400 77.600 C 250.400 77.380,249.950 77.200,249.400 77.200 C 248.850 77.200,248.400 77.020,248.400 76.800 C 248.400 76.580,247.939 76.400,247.376 76.400 C 246.813 76.400,246.441 76.257,246.549 76.083 C 246.656 75.909,246.172 75.723,245.472 75.670 C 244.773 75.618,244.140 75.400,244.067 75.187 C 243.993 74.974,243.482 74.800,242.931 74.800 C 242.379 74.800,241.571 74.395,241.134 73.900 C 240.697 73.405,240.453 73.225,240.593 73.500 C 240.757 73.823,240.547 74.000,240.000 74.000 C 239.534 74.000,239.264 73.820,239.400 73.600 C 239.548 73.361,239.049 73.200,238.157 73.200 C 237.337 73.200,236.742 73.271,236.833 73.358 M156.307 74.800 C 156.032 75.240,155.401 75.600,154.904 75.600 C 154.407 75.600,154.000 75.780,154.000 76.000 C 154.000 76.220,153.460 76.400,152.800 76.400 C 152.140 76.400,151.600 76.580,151.600 76.800 C 151.600 77.020,151.150 77.200,150.600 77.200 C 150.050 77.200,149.600 77.380,149.600 77.600 C 149.600 77.820,149.251 78.000,148.824 78.000 C 148.397 78.000,147.936 78.180,147.800 78.400 C 147.664 78.620,146.935 78.800,146.180 78.800 C 145.240 78.800,144.649 79.052,144.307 79.600 C 144.032 80.040,143.401 80.400,142.904 80.400 C 142.407 80.400,142.000 80.580,142.000 80.800 C 142.000 81.020,141.500 81.200,140.888 81.200 C 140.235 81.200,139.539 81.530,139.200 82.000 C 138.883 82.440,138.393 82.800,138.112 82.800 C 137.830 82.800,137.600 82.980,137.600 83.200 C 137.600 83.420,137.465 83.579,137.300 83.553 C 136.396 83.410,135.585 83.652,135.800 84.000 C 135.936 84.220,135.767 84.400,135.424 84.400 C 135.081 84.400,134.800 84.580,134.800 84.800 C 134.800 85.020,134.384 85.200,133.875 85.200 C 133.367 85.200,132.564 85.560,132.092 86.000 C 131.620 86.440,131.038 86.800,130.799 86.800 C 130.559 86.800,129.910 87.253,129.356 87.808 C 128.802 88.362,128.152 88.694,127.912 88.546 C 127.651 88.385,127.591 88.462,127.762 88.738 C 127.931 89.012,127.793 89.200,127.424 89.200 C 127.081 89.200,126.800 89.380,126.800 89.600 C 126.800 89.820,126.517 90.000,126.171 90.000 C 125.453 90.000,124.191 91.124,124.529 91.463 C 124.653 91.586,125.287 91.308,125.939 90.844 C 126.590 90.380,127.321 90.000,127.562 90.000 C 127.803 90.000,128.000 89.841,128.000 89.646 C 128.000 89.451,128.634 88.990,129.409 88.622 C 130.233 88.232,130.706 87.771,130.547 87.515 C 130.376 87.238,130.463 87.192,130.783 87.389 C 131.062 87.562,131.404 87.544,131.545 87.351 C 132.155 86.512,144.454 80.493,151.000 77.831 C 158.699 74.699,158.352 74.860,157.476 74.827 C 157.078 74.812,156.864 74.620,157.000 74.400 C 157.136 74.180,157.148 74.000,157.027 74.000 C 156.906 74.000,156.582 74.360,156.307 74.800 M188.800 75.872 C 147.062 80.159,112.506 102.486,91.522 138.726 C 83.664 152.297,79.196 165.836,76.316 184.800 C 73.831 201.168,77.031 227.944,83.393 244.012 C 116.659 328.037,222.159 351.512,286.543 289.216 C 296.014 280.052,303.595 269.998,310.229 257.800 C 322.504 235.231,327.061 206.806,322.766 179.600 C 312.736 116.070,252.385 69.341,188.800 75.872 M212.400 76.594 C 217.803 77.187,221.721 77.729,223.600 78.143 C 272.914 89.022,307.565 121.869,320.219 169.730 C 321.663 175.193,322.716 181.738,323.575 190.600 C 324.694 202.146,323.367 217.691,320.196 230.200 C 308.538 276.173,273.140 310.303,225.800 321.212 C 211.390 324.533,194.737 324.676,176.400 321.637 C 112.700 311.080,66.087 244.406,77.587 180.300 C 77.814 179.035,78.170 177.055,78.377 175.900 C 81.179 160.290,87.286 145.516,96.935 131.000 C 117.561 99.972,149.811 80.734,188.400 76.437 C 193.469 75.873,206.610 75.959,212.400 76.594 M122.000 92.800 C 122.000 93.020,121.724 93.200,121.387 93.200 C 121.051 93.200,120.672 93.469,120.546 93.798 C 120.419 94.126,120.127 94.279,119.896 94.136 C 119.651 93.984,119.595 94.069,119.762 94.338 C 119.919 94.592,119.844 94.800,119.595 94.800 C 118.938 94.800,117.852 95.989,118.207 96.319 C 118.373 96.474,118.590 96.375,118.688 96.100 C 118.786 95.825,119.030 95.600,119.229 95.600 C 119.814 95.600,121.177 94.287,120.959 93.933 C 120.849 93.755,121.038 93.716,121.379 93.847 C 121.721 93.978,122.000 93.886,122.000 93.643 C 122.000 93.399,122.270 93.200,122.600 93.200 C 122.930 93.200,123.200 93.020,123.200 92.800 C 123.200 92.580,122.930 92.400,122.600 92.400 C 122.270 92.400,122.000 92.580,122.000 92.800 M276.800 92.800 C 276.800 93.020,277.070 93.200,277.400 93.200 C 277.730 93.200,278.000 93.020,278.000 92.800 C 278.000 92.580,277.730 92.400,277.400 92.400 C 277.070 92.400,276.800 92.580,276.800 92.800 M279.200 94.397 C 279.200 94.618,279.346 94.800,279.525 94.800 C 279.703 94.800,280.255 95.178,280.751 95.640 C 281.247 96.102,281.752 96.381,281.874 96.259 C 282.135 95.999,281.328 95.204,280.085 94.497 C 279.556 94.196,279.200 94.156,279.200 94.397 M116.667 96.667 C 116.068 97.266,116.373 98.120,117.000 97.600 C 117.330 97.326,117.600 96.944,117.600 96.751 C 117.600 96.337,117.047 96.287,116.667 96.667 M282.400 96.753 C 282.400 96.946,283.075 97.615,283.900 98.237 C 284.725 98.860,288.165 102.076,291.545 105.385 C 294.924 108.693,297.863 111.351,298.075 111.290 C 298.286 111.230,298.351 111.355,298.219 111.569 C 298.087 111.783,298.883 112.907,299.989 114.067 C 301.095 115.226,302.000 115.941,302.000 115.656 C 302.000 115.371,301.315 114.476,300.478 113.669 C 299.640 112.861,298.836 111.885,298.690 111.500 C 298.544 111.115,298.242 110.800,298.018 110.800 C 297.488 110.800,291.009 104.321,290.678 103.460 C 290.539 103.097,290.241 102.800,290.015 102.800 C 289.790 102.800,288.152 101.360,286.376 99.600 C 283.339 96.592,282.400 95.919,282.400 96.753 M111.873 101.234 C 110.152 102.975,108.457 104.400,108.106 104.400 C 107.754 104.400,107.581 104.514,107.721 104.654 C 107.860 104.794,107.305 105.439,106.487 106.088 C 105.669 106.737,104.867 107.624,104.703 108.060 C 104.529 108.526,104.216 108.733,103.942 108.564 C 103.673 108.398,103.584 108.450,103.730 108.687 C 104.068 109.234,102.677 110.800,101.853 110.800 C 101.494 110.800,101.221 110.935,101.247 111.100 C 101.378 111.930,101.140 112.400,100.587 112.400 C 100.251 112.400,99.859 112.702,99.717 113.072 C 99.575 113.442,98.771 114.454,97.930 115.320 C 96.398 116.898,96.050 117.600,96.800 117.600 C 97.020 117.600,97.200 117.420,97.200 117.199 C 97.200 116.695,111.832 101.890,114.198 100.000 C 115.992 98.567,116.385 97.974,115.500 98.034 C 115.225 98.053,113.593 99.493,111.873 101.234 M95.000 118.949 C 93.941 120.140,93.116 121.600,93.502 121.600 C 93.671 121.600,94.168 121.120,94.605 120.534 C 95.042 119.948,95.625 119.241,95.900 118.963 C 96.175 118.685,96.400 118.354,96.400 118.229 C 96.400 117.757,95.773 118.079,95.000 118.949 M303.600 118.217 C 303.600 118.336,303.960 118.820,304.400 119.292 C 304.856 119.781,305.200 119.934,305.200 119.647 C 305.200 119.370,304.943 118.886,304.629 118.571 C 304.042 117.985,303.600 117.833,303.600 118.217 M306.000 121.600 C 306.000 121.820,306.180 122.000,306.400 122.000 C 306.620 122.000,306.800 122.270,306.800 122.600 C 306.800 122.930,306.980 123.200,307.200 123.200 C 307.782 123.200,307.690 122.432,307.029 121.771 C 306.358 121.101,306.000 121.042,306.000 121.600 M92.069 122.839 C 91.780 123.300,91.649 123.782,91.776 123.910 C 92.015 124.148,93.165 122.836,93.187 122.300 C 93.212 121.711,92.584 122.014,92.069 122.839 M180.600 122.844 C 156.699 124.357,146.793 130.410,144.658 144.804 C 142.710 157.936,141.916 216.192,143.347 241.000 C 145.002 269.694,146.948 273.845,160.736 278.099 C 166.947 280.015,189.556 279.428,195.937 277.186 C 205.045 273.984,206.346 270.163,205.194 250.000 C 204.986 246.370,204.924 242.320,205.055 241.000 L 205.295 238.600 213.147 238.542 C 234.650 238.384,251.007 231.052,260.761 217.200 C 265.458 210.529,268.843 200.781,268.748 194.200 C 268.717 192.067,268.654 192.267,268.183 196.000 C 265.399 218.047,250.207 232.744,225.793 237.011 C 221.316 237.794,210.838 238.446,207.595 238.145 C 204.068 237.817,204.234 236.972,204.811 252.367 C 205.476 270.096,204.690 272.719,197.733 275.990 C 192.316 278.536,167.154 279.409,160.294 277.289 C 152.115 274.761,148.468 271.259,146.593 264.132 C 142.009 246.702,142.017 153.111,146.604 139.400 C 149.803 129.838,158.904 125.249,178.000 123.568 C 230.087 118.982,264.167 142.485,268.532 186.000 C 268.609 186.772,268.701 186.287,268.736 184.920 C 269.155 168.686,256.124 145.885,240.474 135.468 C 232.483 130.150,222.266 126.165,212.200 124.443 C 202.071 122.709,191.321 122.165,180.600 122.844 M90.496 125.195 C 89.895 126.157,89.876 126.400,90.400 126.400 C 90.620 126.400,90.800 126.130,90.800 125.800 C 90.800 125.470,90.980 125.200,91.200 125.200 C 91.420 125.200,91.600 125.020,91.600 124.800 C 91.600 124.141,91.026 124.346,90.496 125.195 M88.938 127.803 C 88.683 128.351,88.573 128.800,88.694 128.800 C 88.975 128.800,89.971 127.492,89.987 127.100 C 90.015 126.436,89.372 126.867,88.938 127.803 M310.000 127.400 C 310.000 127.730,310.180 128.000,310.400 128.000 C 310.620 128.000,310.800 127.730,310.800 127.400 C 310.800 127.070,310.620 126.800,310.400 126.800 C 310.180 126.800,310.000 127.070,310.000 127.400 M87.269 130.039 C 86.980 130.500,86.849 130.982,86.976 131.110 C 87.215 131.348,88.365 130.036,88.387 129.500 C 88.412 128.911,87.784 129.214,87.269 130.039 M311.600 129.800 C 311.600 130.130,311.780 130.400,312.000 130.400 C 312.220 130.400,312.400 130.130,312.400 129.800 C 312.400 129.470,312.220 129.200,312.000 129.200 C 311.780 129.200,311.600 129.470,311.600 129.800 M185.121 130.299 C 187.388 130.370,190.988 130.370,193.121 130.298 C 195.255 130.226,193.400 130.168,189.000 130.168 C 184.600 130.168,182.855 130.227,185.121 130.299 M174.400 130.800 C 172.312 131.239,174.746 131.257,177.200 130.820 L 179.000 130.500 177.400 130.503 C 176.520 130.504,175.170 130.638,174.400 130.800 M198.433 130.552 C 198.525 130.635,200.220 130.805,202.200 130.928 C 204.760 131.088,205.338 131.050,204.200 130.799 C 202.621 130.451,198.110 130.257,198.433 130.552 M312.413 131.100 C 312.430 131.519,313.434 132.800,313.744 132.800 C 314.201 132.800,314.015 131.958,313.429 131.371 C 312.801 130.744,312.393 130.635,312.413 131.100 M169.200 131.600 C 167.856 132.031,169.308 132.031,171.000 131.600 C 172.078 131.326,172.098 131.294,171.200 131.287 C 170.650 131.283,169.750 131.424,169.200 131.600 M86.000 132.200 C 86.000 132.530,86.180 132.800,86.400 132.800 C 86.620 132.800,86.800 132.530,86.800 132.200 C 86.800 131.870,86.620 131.600,86.400 131.600 C 86.180 131.600,86.000 131.870,86.000 132.200 M165.400 132.400 L 164.600 132.744 165.400 132.744 C 165.840 132.744,166.560 132.589,167.000 132.400 L 167.800 132.056 167.000 132.056 C 166.560 132.056,165.840 132.211,165.400 132.400 M212.400 132.400 C 212.950 132.576,213.850 132.720,214.400 132.720 L 215.400 132.720 214.400 132.400 C 213.850 132.224,212.950 132.080,212.400 132.080 L 211.400 132.080 212.400 132.400 M161.400 133.629 C 160.520 134.052,160.238 134.286,160.774 134.149 C 162.239 133.773,164.286 132.829,163.600 132.845 C 163.270 132.853,162.280 133.206,161.400 133.629 M218.200 133.616 C 219.520 134.041,220.780 134.377,221.000 134.363 C 221.688 134.320,217.443 132.863,216.600 132.853 C 216.160 132.847,216.880 133.191,218.200 133.616 M84.900 133.798 C 84.625 134.111,84.400 134.644,84.400 134.983 C 84.400 135.322,84.265 135.601,84.100 135.603 C 83.935 135.605,83.598 136.010,83.352 136.503 C 83.106 136.996,81.995 139.155,80.885 141.300 C 79.774 143.445,78.947 145.200,79.047 145.200 C 79.147 145.200,79.005 145.605,78.732 146.100 C 78.459 146.595,78.175 147.422,78.100 147.937 C 78.024 148.452,77.611 149.251,77.181 149.712 C 76.752 150.173,76.400 150.841,76.400 151.195 C 76.400 151.550,76.184 152.056,75.920 152.320 C 75.547 152.693,75.550 152.800,75.936 152.800 C 76.232 152.800,76.104 153.151,75.616 153.675 C 75.167 154.157,74.800 154.931,74.800 155.395 C 74.800 155.860,74.575 156.482,74.300 156.779 C 73.900 157.210,73.900 157.261,74.300 157.035 C 74.575 156.880,74.800 156.943,74.800 157.176 C 74.800 157.409,74.665 157.601,74.500 157.603 C 74.335 157.605,73.992 158.055,73.737 158.604 C 73.483 159.152,73.438 159.500,73.637 159.377 C 73.837 159.254,74.000 159.444,74.000 159.800 C 74.000 160.156,73.820 160.336,73.600 160.200 C 73.235 159.974,73.010 161.069,73.170 162.300 C 73.206 162.575,73.047 162.800,72.818 162.800 C 72.588 162.800,72.400 163.235,72.400 163.767 C 72.400 164.298,72.175 164.824,71.900 164.935 C 71.606 165.054,71.694 165.150,72.113 165.168 C 72.504 165.186,72.890 164.975,72.970 164.700 C 73.776 161.910,75.732 155.628,75.990 155.000 C 76.171 154.560,76.549 153.570,76.830 152.800 C 78.182 149.098,83.110 138.542,85.004 135.289 C 86.259 133.134,86.202 132.319,84.900 133.798 M314.094 133.900 C 314.179 134.285,314.475 134.551,314.753 134.490 C 315.032 134.430,315.147 134.562,315.010 134.784 C 314.873 135.006,315.907 137.485,317.309 140.294 C 318.710 143.102,320.834 147.809,322.028 150.753 C 323.526 154.445,324.243 155.814,324.339 155.166 C 324.416 154.649,324.281 154.160,324.039 154.080 C 323.798 153.999,323.600 153.498,323.600 152.967 C 323.600 152.435,323.420 152.000,323.200 152.000 C 322.980 152.000,322.800 151.449,322.800 150.776 C 322.800 150.063,322.633 149.656,322.400 149.800 C 322.166 149.945,322.000 149.530,322.000 148.800 C 322.000 148.070,321.834 147.655,321.600 147.800 C 321.373 147.940,321.200 147.604,321.200 147.024 C 321.200 146.461,321.020 146.000,320.800 146.000 C 320.580 146.000,320.400 145.735,320.400 145.412 C 320.400 145.089,320.040 144.183,319.600 143.400 C 319.160 142.617,318.800 141.711,318.800 141.388 C 318.800 141.065,318.620 140.800,318.400 140.800 C 318.180 140.800,318.000 140.360,318.000 139.823 C 318.000 139.266,317.617 138.577,317.111 138.223 C 316.591 137.858,316.450 137.600,316.772 137.600 C 317.128 137.600,317.018 137.336,316.461 136.853 C 315.988 136.442,315.594 135.767,315.587 135.353 C 315.574 134.562,314.713 133.200,314.227 133.200 C 314.070 133.200,314.010 133.515,314.094 133.900 M156.874 135.887 C 156.364 136.242,155.419 137.300,154.774 138.238 C 153.417 140.211,153.181 141.066,154.466 139.354 C 154.943 138.719,155.969 137.525,156.748 136.700 C 158.281 135.074,158.310 134.886,156.874 135.887 M230.277 138.382 C 232.122 139.507,234.800 140.845,234.800 140.643 C 234.800 140.407,229.756 137.600,229.335 137.601 C 229.151 137.602,229.575 137.953,230.277 138.382 M152.820 142.262 C 152.580 143.108,152.297 144.610,152.192 145.600 C 152.071 146.746,152.276 146.237,152.758 144.200 C 153.544 140.878,153.586 139.574,152.820 142.262 M236.170 141.678 C 243.611 147.544,247.039 150.942,250.565 155.950 C 252.326 158.451,253.245 159.563,252.590 158.400 C 249.476 152.868,242.309 145.456,236.400 141.656 L 235.000 140.756 236.170 141.678 M151.461 150.286 C 151.166 153.555,150.766 166.050,150.983 165.200 C 151.260 164.117,152.118 147.985,151.910 147.776 C 151.798 147.664,151.596 148.794,151.461 150.286 M324.400 156.625 C 324.400 157.063,325.694 160.800,325.846 160.800 C 325.931 160.800,326.000 160.159,326.000 159.376 C 326.000 158.529,325.838 158.053,325.600 158.200 C 325.373 158.340,325.200 158.004,325.200 157.424 C 325.200 156.861,325.020 156.400,324.800 156.400 C 324.580 156.400,324.400 156.501,324.400 156.625 M252.809 159.500 C 252.814 159.665,253.185 160.250,253.633 160.800 L 254.448 161.800 253.814 160.500 C 253.211 159.265,252.789 158.845,252.809 159.500 M326.028 161.900 C 326.094 163.541,326.743 164.239,326.772 162.700 C 326.787 161.875,326.620 161.200,326.400 161.200 C 326.180 161.200,326.013 161.515,326.028 161.900 M254.467 162.200 C 254.559 162.420,255.183 163.770,255.854 165.200 C 256.525 166.630,257.312 168.520,257.602 169.400 C 257.893 170.280,258.199 170.796,258.283 170.547 C 258.464 170.009,255.445 162.872,254.769 162.239 C 254.511 161.997,254.375 161.980,254.467 162.200 M326.806 164.900 C 326.820 166.042,327.588 166.626,327.594 165.500 C 327.597 164.895,327.420 164.400,327.200 164.400 C 326.980 164.400,326.803 164.625,326.806 164.900 M71.600 166.376 C 71.600 166.803,71.420 167.264,71.200 167.400 C 70.980 167.536,70.800 168.256,70.800 169.000 C 70.800 169.744,70.620 170.464,70.400 170.600 C 69.798 170.972,69.919 171.600,70.592 171.600 C 70.918 171.600,71.284 171.105,71.406 170.500 C 71.528 169.895,71.802 168.847,72.014 168.172 C 72.511 166.591,72.505 165.600,72.000 165.600 C 71.780 165.600,71.600 165.949,71.600 166.376 M150.564 172.600 C 150.563 176.340,150.623 177.924,150.697 176.120 C 150.771 174.315,150.772 171.255,150.698 169.320 C 150.625 167.384,150.564 168.860,150.564 172.600 M327.606 167.700 C 327.620 168.842,328.388 169.426,328.394 168.300 C 328.397 167.695,328.220 167.200,328.000 167.200 C 327.780 167.200,327.603 167.425,327.606 167.700 M200.000 170.004 C 196.652 170.218,197.006 170.256,202.967 170.323 C 206.688 170.366,209.658 170.335,209.567 170.256 C 209.186 169.926,203.537 169.777,200.000 170.004 M194.200 170.800 C 193.696 171.017,193.622 171.144,194.000 171.144 C 194.330 171.144,194.960 170.989,195.400 170.800 C 195.904 170.583,195.978 170.456,195.600 170.456 C 195.270 170.456,194.640 170.611,194.200 170.800 M210.800 170.800 C 211.350 170.976,212.160 171.120,212.600 171.120 C 213.233 171.120,213.192 171.054,212.400 170.800 C 211.850 170.624,211.040 170.480,210.600 170.480 C 209.967 170.480,210.008 170.546,210.800 170.800 M328.406 170.900 C 328.420 172.042,329.188 172.626,329.194 171.500 C 329.197 170.895,329.020 170.400,328.800 170.400 C 328.580 170.400,328.403 170.625,328.406 170.900 M192.550 171.506 C 191.791 172.002,190.401 174.554,190.430 175.400 C 190.446 175.881,190.687 175.569,191.036 174.618 C 191.354 173.748,192.003 172.623,192.477 172.118 C 193.348 171.191,193.375 170.967,192.550 171.506 M215.400 172.160 C 218.984 173.797,220.886 176.074,221.949 180.000 C 222.259 181.145,222.333 181.218,222.355 180.400 C 222.445 177.090,216.924 171.088,213.913 171.223 C 213.631 171.236,214.300 171.657,215.400 172.160 M70.300 172.231 C 70.135 172.397,70.000 172.943,70.000 173.443 C 70.000 173.943,69.820 174.464,69.600 174.600 C 69.380 174.736,69.221 175.152,69.246 175.524 C 69.288 176.128,69.312 176.125,69.477 175.495 C 69.578 175.107,69.822 174.890,70.019 175.011 C 70.433 175.268,70.935 173.578,70.735 172.596 C 70.661 172.229,70.465 172.064,70.300 172.231 M329.467 173.867 C 329.057 174.277,329.151 175.922,329.600 176.200 C 329.838 176.347,330.000 175.871,330.000 175.024 C 330.000 173.562,329.928 173.405,329.467 173.867 M259.256 174.600 C 259.256 175.040,259.411 175.760,259.600 176.200 L 259.944 177.000 259.944 176.200 C 259.944 175.760,259.789 175.040,259.600 174.600 L 259.256 173.800 259.256 174.600 M69.098 177.700 C 68.856 179.337,69.151 180.320,69.650 179.534 C 70.099 178.825,70.096 176.400,69.645 176.400 C 69.450 176.400,69.204 176.985,69.098 177.700 M189.861 179.500 C 189.396 184.418,189.557 191.524,190.167 192.982 C 191.194 195.441,191.894 195.635,199.245 195.500 L 205.800 195.379 199.175 195.289 L 192.550 195.200 191.375 193.970 L 190.200 192.740 190.238 184.770 C 190.279 176.042,190.239 175.490,189.861 179.500 M197.600 177.565 C 197.148 177.870,196.983 178.887,196.931 181.685 L 196.863 185.400 197.238 182.013 C 197.712 177.741,197.296 178.006,203.621 177.946 C 211.622 177.870,214.800 179.177,214.800 182.541 C 214.800 185.645,210.898 187.337,202.227 187.990 C 197.192 188.369,196.811 188.290,196.768 186.857 C 196.751 186.276,196.643 186.033,196.529 186.317 C 196.415 186.602,196.440 187.303,196.584 187.877 L 196.845 188.919 201.323 188.655 C 212.846 187.974,218.205 184.619,214.762 180.243 C 212.818 177.771,200.208 175.803,197.600 177.565 M330.267 177.867 C 329.861 178.273,329.960 180.522,330.414 181.200 C 330.705 181.634,330.794 181.218,330.736 179.700 C 330.693 178.545,330.629 177.600,330.595 177.600 C 330.561 177.600,330.413 177.720,330.267 177.867 M68.454 182.453 C 68.414 183.582,68.285 184.662,68.167 184.853 C 68.049 185.044,68.076 185.399,68.226 185.643 C 68.733 186.462,69.188 185.079,69.194 182.700 C 69.201 179.849,68.554 179.633,68.454 182.453 M261.072 184.200 C 261.195 186.180,261.365 187.875,261.448 187.967 C 261.743 188.290,261.549 183.779,261.201 182.200 C 260.950 181.062,260.912 181.640,261.072 184.200 M150.185 201.800 C 150.185 212.140,150.236 216.427,150.300 211.328 C 150.363 206.228,150.363 197.768,150.300 192.528 C 150.237 187.287,150.185 191.460,150.185 201.800 M221.706 185.721 C 221.117 187.920,219.039 190.685,217.265 191.628 C 215.434 192.601,215.216 192.892,216.708 192.372 C 219.090 191.542,222.910 186.129,222.334 184.401 C 222.250 184.149,221.967 184.743,221.706 185.721 M330.806 185.700 C 330.809 186.635,330.987 187.670,331.200 188.000 C 331.475 188.426,331.590 187.933,331.594 186.300 C 331.597 185.029,331.421 184.000,331.200 184.000 C 330.980 184.000,330.803 184.765,330.806 185.700 M67.600 199.600 C 67.600 208.180,67.730 211.967,68.019 211.788 C 68.543 211.465,68.482 187.698,67.957 187.373 C 67.751 187.246,67.600 192.408,67.600 199.600 M268.901 189.000 C 268.905 189.880,268.987 190.193,269.083 189.695 C 269.179 189.198,269.175 188.478,269.075 188.095 C 268.975 187.713,268.896 188.120,268.901 189.000 M261.036 194.339 C 260.875 195.955,260.831 197.364,260.937 197.470 C 261.201 197.734,261.731 192.590,261.507 191.930 C 261.409 191.639,261.197 192.722,261.036 194.339 M332.167 199.200 C 332.167 203.490,332.226 205.245,332.298 203.100 C 332.370 200.955,332.370 197.445,332.298 195.300 C 332.226 193.155,332.167 194.910,332.167 199.200 M211.400 194.000 C 210.896 194.217,210.822 194.344,211.200 194.344 C 211.530 194.344,212.160 194.189,212.600 194.000 C 213.104 193.783,213.178 193.656,212.800 193.656 C 212.470 193.656,211.840 193.811,211.400 194.000 M207.400 194.800 L 206.200 195.105 207.600 195.125 C 208.370 195.135,209.360 194.989,209.800 194.800 C 210.864 194.343,209.197 194.343,207.400 194.800 M259.835 201.035 C 259.427 202.460,259.180 203.713,259.286 203.819 C 259.392 203.925,259.798 202.831,260.188 201.388 C 260.579 199.945,260.826 198.693,260.738 198.605 C 260.650 198.516,260.243 199.610,259.835 201.035 M257.236 208.108 C 253.192 216.769,244.707 224.073,235.073 227.186 C 234.233 227.458,233.642 227.775,233.759 227.892 C 234.020 228.153,237.710 226.708,241.200 224.977 C 246.051 222.571,251.955 217.534,254.839 213.343 C 256.166 211.415,259.373 204.839,259.113 204.580 C 259.027 204.494,258.183 206.082,257.236 208.108 M241.642 207.704 C 249.199 211.302,236.736 220.124,220.354 222.772 C 215.853 223.500,213.184 222.733,213.205 220.719 C 213.220 219.351,213.787 218.408,214.938 217.840 C 215.758 217.436,215.949 217.215,215.482 217.209 C 213.015 217.178,212.015 220.868,214.031 222.564 C 215.473 223.778,216.234 223.820,221.504 222.977 C 237.266 220.456,251.118 209.753,241.600 207.450 L 240.600 207.208 241.642 207.704 M237.323 209.646 C 233.604 212.923,228.232 215.131,220.946 216.378 C 218.556 216.787,217.165 217.139,217.856 217.161 C 223.281 217.330,233.172 213.850,236.932 210.449 C 237.849 209.619,239.045 208.638,239.589 208.270 C 240.133 207.901,240.368 207.600,240.112 207.600 C 239.856 207.600,238.601 208.521,237.323 209.646 M331.100 211.150 C 330.646 213.194,330.713 215.047,331.223 214.537 C 331.455 214.305,331.590 213.144,331.523 211.957 C 331.409 209.951,331.379 209.895,331.100 211.150 M68.179 214.281 C 68.324 214.765,68.447 216.250,68.453 217.581 C 68.459 218.911,68.630 220.000,68.832 220.000 C 69.479 220.000,69.236 215.078,68.546 214.200 C 67.926 213.411,67.921 213.412,68.179 214.281 M330.267 218.667 C 329.845 219.088,329.956 221.200,330.400 221.200 C 330.620 221.200,330.800 220.570,330.800 219.800 C 330.800 218.361,330.727 218.206,330.267 218.667 M69.200 222.576 C 69.200 223.799,69.380 224.800,69.600 224.800 C 69.820 224.800,70.000 225.621,70.000 226.624 C 70.000 227.829,70.147 228.357,70.433 228.180 C 70.691 228.020,70.833 228.212,70.786 228.656 C 70.627 230.168,70.812 231.200,71.244 231.200 C 71.536 231.200,71.599 230.688,71.428 229.700 C 71.286 228.875,71.067 227.524,70.942 226.697 C 70.818 225.871,70.555 225.095,70.358 224.974 C 70.161 224.852,70.000 223.874,70.000 222.800 C 70.000 221.726,69.820 220.736,69.600 220.600 C 69.352 220.447,69.200 221.196,69.200 222.576 M150.474 227.800 C 150.341 242.925,152.232 260.860,154.334 264.400 C 155.857 266.965,156.923 268.361,157.534 268.595 C 157.900 268.735,157.634 268.253,156.943 267.525 C 153.149 263.526,151.535 253.840,150.821 230.800 C 150.542 221.774,150.528 221.654,150.474 227.800 M329.200 224.776 C 329.200 225.203,329.380 225.664,329.600 225.800 C 329.827 225.940,330.000 225.604,330.000 225.024 C 330.000 224.461,329.820 224.000,329.600 224.000 C 329.380 224.000,329.200 224.349,329.200 224.776 M328.587 228.040 C 328.441 228.502,328.518 229.078,328.760 229.320 C 329.080 229.640,329.200 229.410,329.200 228.480 C 329.200 227.003,328.969 226.837,328.587 228.040 M228.400 229.200 L 227.400 229.520 228.400 229.532 C 228.950 229.538,229.760 229.389,230.200 229.200 L 231.000 228.856 230.200 228.868 C 229.760 228.874,228.950 229.024,228.400 229.200 M224.600 230.000 C 223.522 230.274,223.502 230.306,224.400 230.313 C 224.950 230.317,225.850 230.176,226.400 230.000 C 227.744 229.569,226.292 229.569,224.600 230.000 M209.400 230.800 L 200.600 231.024 209.600 231.077 C 214.550 231.106,219.500 230.990,220.600 230.818 L 222.600 230.507 220.400 230.542 C 219.190 230.561,214.240 230.677,209.400 230.800 M327.867 231.067 C 327.452 231.482,327.553 232.800,328.000 232.800 C 328.220 232.800,328.400 232.350,328.400 231.800 C 328.400 230.753,328.308 230.626,327.867 231.067 M184.769 231.944 L 183.800 232.728 183.777 243.064 L 183.753 253.400 183.994 243.200 C 184.126 237.590,184.272 232.968,184.317 232.929 C 184.363 232.889,184.683 232.574,185.029 232.229 C 185.880 231.377,187.835 231.435,188.739 232.339 C 190.008 233.608,190.426 261.995,189.202 263.760 L 188.342 265.000 189.433 263.805 L 190.525 262.611 190.281 248.026 C 190.056 234.552,189.980 233.364,189.279 232.421 C 188.283 231.080,186.119 230.851,184.769 231.944 M198.880 232.011 C 197.943 232.884,197.394 234.446,197.729 235.283 C 197.843 235.567,197.951 235.291,197.968 234.669 C 197.988 233.983,198.460 233.079,199.169 232.369 C 200.481 231.057,200.234 230.750,198.880 232.011 M71.000 231.878 C 71.220 232.055,71.464 232.650,71.541 233.200 C 71.619 233.750,71.889 234.332,72.141 234.494 C 72.455 234.695,72.417 234.790,72.020 234.794 C 71.569 234.799,71.547 234.907,71.920 235.280 C 72.184 235.544,72.400 236.084,72.400 236.480 C 72.400 236.876,72.600 237.200,72.845 237.200 C 73.120 237.200,73.204 236.777,73.064 236.100 C 72.940 235.495,72.691 234.282,72.513 233.404 C 72.280 232.263,71.962 231.773,71.394 231.683 C 70.945 231.612,70.774 231.697,71.000 231.878 M326.934 234.627 C 326.802 234.972,326.898 235.458,327.147 235.707 C 327.484 236.044,327.600 235.884,327.600 235.080 C 327.600 233.877,327.301 233.673,326.934 234.627 M326.217 237.099 C 325.646 238.587,326.362 238.907,327.031 237.464 C 327.362 236.749,327.343 236.533,326.948 236.533 C 326.666 236.533,326.337 236.788,326.217 237.099 M73.158 237.876 C 73.034 238.821,73.314 240.649,73.634 240.980 C 73.835 241.189,74.000 241.684,74.000 242.080 C 74.000 242.476,74.180 242.800,74.400 242.800 C 74.620 242.800,74.800 243.340,74.800 244.000 C 74.800 244.660,74.980 245.200,75.200 245.200 C 75.420 245.200,75.600 245.560,75.600 246.000 C 75.600 246.440,75.780 246.800,76.000 246.800 C 76.220 246.800,76.400 247.323,76.400 247.962 C 76.400 248.601,76.786 249.906,77.257 250.862 C 77.728 251.818,78.246 252.960,78.409 253.400 C 79.160 255.436,82.153 261.200,82.458 261.200 C 82.646 261.200,82.800 261.560,82.800 262.000 C 82.800 262.440,82.980 262.800,83.200 262.800 C 83.420 262.800,83.600 263.070,83.600 263.400 C 83.600 263.730,83.780 264.000,84.000 264.000 C 84.220 264.000,84.406 264.315,84.413 264.700 C 84.437 266.016,86.000 267.493,86.000 266.200 C 86.000 265.870,85.820 265.600,85.600 265.600 C 85.380 265.600,85.200 265.327,85.200 264.993 C 85.200 264.659,84.525 263.262,83.700 261.888 C 82.875 260.514,81.994 258.942,81.741 258.395 C 79.924 254.451,78.907 252.055,77.337 248.018 C 76.350 245.478,75.375 243.087,75.171 242.705 C 74.967 242.323,74.800 241.659,74.800 241.229 C 74.800 240.799,74.620 240.336,74.400 240.200 C 74.180 240.064,74.000 239.524,74.000 239.000 C 74.000 238.126,73.255 237.132,73.158 237.876 M325.372 239.771 C 325.237 240.305,325.319 241.070,325.552 241.471 C 325.899 242.068,325.978 241.892,325.988 240.500 C 326.001 238.605,325.741 238.298,325.372 239.771 M197.770 248.200 C 197.771 253.040,197.829 254.965,197.899 252.478 C 197.969 249.991,197.969 246.031,197.898 243.678 C 197.828 241.325,197.770 243.360,197.770 248.200 M324.618 242.344 C 324.488 242.753,324.507 243.412,324.659 243.809 C 324.837 244.273,324.784 244.437,324.510 244.268 C 323.897 243.889,322.631 247.191,323.179 247.739 C 323.474 248.034,323.600 247.830,323.600 247.063 C 323.600 246.460,323.960 245.580,324.400 245.108 C 324.866 244.608,325.200 243.696,325.200 242.925 C 325.200 241.447,324.974 241.222,324.618 242.344 M322.234 248.800 C 322.049 249.350,321.191 251.324,320.327 253.187 C 319.093 255.847,318.841 256.749,319.151 257.387 C 319.499 258.103,319.549 258.045,319.573 256.900 C 319.588 256.185,319.780 255.600,320.000 255.600 C 320.220 255.600,320.400 255.324,320.400 254.986 C 320.400 254.648,320.710 253.899,321.088 253.321 C 321.467 252.743,321.839 251.808,321.915 251.243 C 321.990 250.677,322.236 250.101,322.461 249.962 C 322.686 249.823,322.803 249.280,322.720 248.755 L 322.571 247.800 322.234 248.800 M184.074 258.531 C 183.993 263.295,184.937 265.254,187.269 265.164 C 188.045 265.134,187.991 265.067,186.950 264.766 C 184.910 264.174,184.621 263.486,184.374 258.641 L 184.148 254.200 184.074 258.531 M316.609 261.000 C 315.523 263.200,314.452 265.125,314.229 265.278 C 314.006 265.431,313.944 265.678,314.093 265.826 C 314.465 266.199,315.600 264.997,315.600 264.229 C 315.600 263.883,315.780 263.600,316.000 263.600 C 316.220 263.600,316.400 263.240,316.400 262.800 C 316.400 262.360,316.580 262.000,316.800 262.000 C 317.020 262.000,317.200 261.640,317.200 261.200 C 317.200 260.760,317.380 260.400,317.600 260.400 C 317.820 260.400,318.000 260.055,318.000 259.633 C 318.000 259.212,318.201 258.800,318.446 258.718 C 318.691 258.636,318.822 258.216,318.737 257.785 C 318.633 257.255,317.942 258.298,316.609 261.000 M198.084 261.354 C 197.945 267.237,197.261 268.559,193.696 269.831 C 192.818 270.144,192.530 270.369,193.000 270.376 C 196.509 270.424,198.481 267.209,198.299 261.738 L 198.167 257.800 198.084 261.354 M86.000 267.800 C 86.000 268.130,86.180 268.400,86.400 268.400 C 86.620 268.400,86.800 268.130,86.800 267.800 C 86.800 267.470,86.620 267.200,86.400 267.200 C 86.180 267.200,86.000 267.470,86.000 267.800 M312.400 268.600 C 312.400 268.930,312.580 269.200,312.800 269.200 C 313.020 269.200,313.200 268.930,313.200 268.600 C 313.200 268.270,313.020 268.000,312.800 268.000 C 312.580 268.000,312.400 268.270,312.400 268.600 M86.813 269.100 C 86.830 269.519,87.834 270.800,88.144 270.800 C 88.601 270.800,88.415 269.958,87.829 269.371 C 87.201 268.744,86.793 268.635,86.813 269.100 M158.400 268.990 C 158.400 269.288,160.702 270.402,161.280 270.383 C 161.566 270.374,161.170 270.022,160.400 269.600 C 158.981 268.823,158.400 268.646,158.400 268.990 M162.480 270.594 C 163.997 272.217,190.291 272.243,191.912 270.622 C 192.229 270.304,191.576 270.347,186.200 270.996 C 178.706 271.900,170.182 271.730,163.600 270.546 C 162.830 270.407,162.326 270.429,162.480 270.594 M88.400 271.629 C 88.400 272.180,89.572 273.361,89.847 273.087 C 90.106 272.827,89.120 271.200,88.704 271.200 C 88.537 271.200,88.400 271.393,88.400 271.629 M310.000 272.567 C 310.000 272.878,309.775 273.214,309.500 273.312 C 309.225 273.410,309.137 273.637,309.304 273.816 C 309.471 273.995,309.871 273.795,310.191 273.371 C 310.881 272.459,310.951 272.000,310.400 272.000 C 310.180 272.000,310.000 272.255,310.000 272.567 M90.000 274.029 C 90.000 274.580,91.172 275.761,91.447 275.487 C 91.706 275.227,90.720 273.600,90.304 273.600 C 90.137 273.600,90.000 273.793,90.000 274.029 M308.527 274.660 C 308.670 274.804,308.476 275.149,308.094 275.428 C 307.713 275.707,307.527 276.061,307.682 276.215 C 308.009 276.543,309.200 275.456,309.200 274.829 C 309.200 274.593,308.990 274.400,308.733 274.400 C 308.477 274.400,308.384 274.517,308.527 274.660 M91.600 276.300 C 91.601 276.688,93.414 278.800,93.747 278.800 C 94.238 278.800,93.988 278.188,93.053 277.100 C 92.114 276.008,91.600 275.725,91.600 276.300 M306.500 277.398 C 306.225 277.711,306.000 278.139,306.000 278.350 C 306.000 278.561,305.775 278.814,305.500 278.912 C 305.225 279.010,305.124 279.224,305.276 279.388 C 305.591 279.727,307.600 277.852,307.600 277.218 C 307.600 276.639,307.096 276.721,306.500 277.398 M94.000 279.500 C 94.001 280.018,95.992 282.141,96.242 281.891 C 96.373 281.760,96.102 281.247,95.640 280.751 C 95.178 280.255,94.800 279.703,94.800 279.525 C 94.800 279.346,94.620 279.200,94.400 279.200 C 94.180 279.200,94.000 279.335,94.000 279.500 M303.795 281.066 C 303.358 281.652,302.754 282.381,302.452 282.685 C 302.151 282.989,302.013 283.346,302.145 283.478 C 302.404 283.738,305.200 280.850,305.200 280.322 C 305.200 279.688,304.576 280.018,303.795 281.066 M96.400 282.765 C 96.400 282.966,97.480 284.227,98.800 285.568 C 100.120 286.908,101.200 288.175,101.200 288.383 C 101.200 288.590,101.515 288.944,101.900 289.168 C 102.285 289.392,102.445 289.581,102.257 289.588 C 101.778 289.605,109.306 297.195,109.804 297.198 C 110.026 297.199,110.432 297.560,110.707 298.000 C 110.982 298.440,111.399 298.800,111.635 298.800 C 111.870 298.800,112.724 299.481,113.531 300.313 C 114.339 301.145,115.630 302.268,116.400 302.809 C 117.170 303.349,118.322 304.288,118.959 304.896 C 120.164 306.043,120.800 306.286,120.800 305.600 C 120.800 305.380,120.602 305.200,120.360 305.200 C 120.119 305.200,119.417 304.660,118.800 304.000 C 118.183 303.340,117.558 302.800,117.411 302.800 C 117.263 302.800,116.915 302.575,116.637 302.300 C 116.359 302.025,114.813 300.630,113.202 299.200 C 109.262 295.703,99.463 285.689,97.805 283.466 C 97.004 282.392,96.400 282.091,96.400 282.765 M297.922 288.075 C 296.677 289.459,295.730 290.663,295.818 290.751 C 296.094 291.028,300.461 286.382,300.320 285.961 C 300.247 285.740,299.168 286.692,297.922 288.075 M289.427 296.627 C 286.593 299.367,284.368 301.701,284.483 301.816 C 284.597 301.930,286.988 299.762,289.796 296.996 C 292.604 294.231,294.829 291.896,294.741 291.808 C 294.653 291.719,292.262 293.888,289.427 296.627 M281.660 303.442 C 281.362 303.778,281.199 304.132,281.295 304.229 C 281.392 304.326,281.798 304.044,282.198 303.602 C 282.597 303.161,282.761 302.807,282.562 302.815 C 282.363 302.824,281.957 303.105,281.660 303.442 M278.460 305.842 C 278.162 306.178,277.999 306.532,278.095 306.629 C 278.192 306.726,278.598 306.444,278.998 306.002 C 279.397 305.561,279.561 305.207,279.362 305.215 C 279.163 305.224,278.757 305.505,278.460 305.842 M121.200 306.229 C 121.200 306.652,122.338 307.600,122.847 307.600 C 123.134 307.600,122.981 307.256,122.492 306.800 C 121.628 305.995,121.200 305.806,121.200 306.229 M124.400 308.800 C 124.400 309.020,124.636 309.200,124.925 309.200 C 125.213 309.200,125.836 309.560,126.308 310.000 C 126.780 310.440,127.354 310.800,127.583 310.800 C 128.182 310.800,128.100 310.002,127.500 309.991 C 127.225 309.986,126.550 309.630,126.000 309.200 C 124.882 308.326,124.400 308.205,124.400 308.800 M128.400 311.029 C 128.400 311.421,129.522 312.400,129.971 312.400 C 130.207 312.400,130.400 312.220,130.400 312.000 C 130.400 311.780,130.130 311.600,129.800 311.600 C 129.470 311.600,129.200 311.420,129.200 311.200 C 129.200 310.980,129.020 310.800,128.800 310.800 C 128.580 310.800,128.400 310.903,128.400 311.029 M130.800 312.704 C 130.800 313.141,132.434 314.099,132.710 313.824 C 132.837 313.696,132.595 313.329,132.171 313.009 C 131.312 312.359,130.800 312.245,130.800 312.704 M266.800 313.600 C 266.800 313.820,266.530 314.000,266.200 314.000 C 265.870 314.000,265.600 314.180,265.600 314.400 C 265.600 314.939,266.056 314.884,266.900 314.243 C 267.679 313.652,267.809 313.200,267.200 313.200 C 266.980 313.200,266.800 313.380,266.800 313.600 M133.200 314.353 C 133.200 314.548,133.515 314.807,133.900 314.929 C 134.836 315.225,136.966 316.524,137.133 316.900 C 137.207 317.065,137.597 317.200,138.000 317.200 C 138.403 317.200,138.793 317.335,138.867 317.500 C 139.059 317.932,142.372 319.600,143.038 319.600 C 143.347 319.600,143.600 319.791,143.600 320.024 C 143.600 320.257,143.753 320.352,143.941 320.236 C 144.129 320.120,144.624 320.284,145.041 320.600 C 145.458 320.916,146.205 321.180,146.700 321.187 C 147.195 321.194,147.600 321.380,147.600 321.600 C 147.600 321.820,147.960 322.000,148.400 322.000 C 148.840 322.000,149.200 322.180,149.200 322.400 C 149.200 322.620,149.549 322.800,149.976 322.800 C 150.403 322.800,150.864 322.980,151.000 323.200 C 151.136 323.420,151.777 323.600,152.424 323.600 C 153.071 323.600,153.600 323.780,153.600 324.000 C 153.600 324.220,153.949 324.400,154.376 324.400 C 154.803 324.400,155.264 324.580,155.400 324.800 C 155.536 325.020,156.087 325.200,156.624 325.200 C 157.161 325.200,157.600 325.020,157.600 324.800 C 157.600 324.580,157.060 324.400,156.400 324.400 C 155.740 324.400,155.200 324.220,155.200 324.000 C 155.200 323.780,154.928 323.600,154.595 323.600 C 154.262 323.600,153.677 323.435,153.295 323.234 C 152.913 323.032,151.925 322.582,151.100 322.234 C 150.275 321.885,148.925 321.312,148.100 320.959 C 147.275 320.607,146.240 320.182,145.800 320.016 C 145.360 319.850,144.218 319.328,143.262 318.857 C 142.306 318.386,141.271 318.000,140.962 318.000 C 140.653 318.000,140.400 317.820,140.400 317.600 C 140.400 317.380,140.040 317.200,139.600 317.200 C 139.160 317.200,138.800 317.054,138.800 316.875 C 138.800 316.696,138.170 316.302,137.400 316.000 C 136.630 315.698,136.000 315.304,136.000 315.125 C 136.000 314.946,135.640 314.800,135.200 314.800 C 134.760 314.800,134.400 314.620,134.400 314.400 C 134.400 314.180,134.130 314.000,133.800 314.000 C 133.470 314.000,133.200 314.159,133.200 314.353 M264.000 315.200 C 264.000 315.420,263.640 315.600,263.200 315.600 C 262.760 315.600,262.400 315.746,262.400 315.925 C 262.400 316.104,261.770 316.498,261.000 316.800 C 260.230 317.102,259.600 317.496,259.600 317.675 C 259.600 317.854,259.150 318.000,258.600 318.000 C 258.050 318.000,257.600 318.180,257.600 318.400 C 257.600 318.620,257.240 318.800,256.800 318.800 C 256.360 318.800,256.000 318.980,256.000 319.200 C 256.000 319.420,255.640 319.600,255.200 319.600 C 254.760 319.600,254.400 319.780,254.400 320.000 C 254.400 320.220,254.158 320.400,253.861 320.400 C 252.957 320.400,250.587 321.729,251.154 321.918 C 251.725 322.108,251.662 322.134,257.200 319.430 C 263.554 316.327,266.021 314.800,264.680 314.800 C 264.306 314.800,264.000 314.980,264.000 315.200 M248.800 322.400 C 248.800 322.620,249.160 322.800,249.600 322.800 C 250.040 322.800,250.400 322.620,250.400 322.400 C 250.400 322.180,250.040 322.000,249.600 322.000 C 249.160 322.000,248.800 322.180,248.800 322.400 M247.000 323.200 C 246.864 323.420,247.123 323.600,247.576 323.600 C 248.029 323.600,248.400 323.420,248.400 323.200 C 248.400 322.980,248.141 322.800,247.824 322.800 C 247.507 322.800,247.136 322.980,247.000 323.200 M244.800 324.000 C 244.800 324.220,244.361 324.400,243.824 324.400 C 243.287 324.400,242.731 324.588,242.589 324.818 C 242.303 325.281,244.176 325.157,244.652 324.682 C 244.807 324.527,245.263 324.400,245.667 324.400 C 246.070 324.400,246.400 324.220,246.400 324.000 C 246.400 323.780,246.040 323.600,245.600 323.600 C 245.160 323.600,244.800 323.780,244.800 324.000 M158.000 325.600 C 158.000 325.820,158.461 326.000,159.024 326.000 C 159.604 326.000,159.940 325.827,159.800 325.600 C 159.664 325.380,159.203 325.200,158.776 325.200 C 158.349 325.200,158.000 325.380,158.000 325.600 M239.565 326.100 C 239.183 326.843,239.195 326.913,239.631 326.500 C 239.922 326.225,240.574 326.000,241.080 326.000 C 241.586 326.000,242.000 325.820,242.000 325.600 C 242.000 324.790,240.031 325.194,239.565 326.100 M160.400 326.400 C 160.400 326.620,160.839 326.800,161.376 326.800 C 161.913 326.800,162.476 326.999,162.626 327.243 C 162.817 327.551,163.004 327.521,163.244 327.143 C 163.497 326.743,163.589 326.732,163.594 327.100 C 163.597 327.375,164.039 327.600,164.576 327.600 C 165.113 327.600,165.664 327.780,165.800 328.000 C 165.936 328.220,166.656 328.400,167.400 328.400 C 168.144 328.400,168.864 328.580,169.000 328.800 C 169.136 329.020,169.946 329.200,170.800 329.200 C 171.654 329.200,172.464 329.380,172.600 329.600 C 172.927 330.129,173.600 330.113,173.600 329.576 C 173.600 329.343,173.439 329.252,173.242 329.374 C 173.045 329.496,172.781 329.326,172.654 328.998 C 172.504 328.606,171.877 328.400,170.836 328.400 C 169.962 328.400,169.136 328.220,169.000 328.000 C 168.864 327.780,168.221 327.600,167.571 327.600 C 166.921 327.600,166.077 327.442,165.695 327.249 C 163.521 326.151,160.400 325.650,160.400 326.400 M237.400 326.400 C 237.264 326.620,236.634 326.800,236.000 326.800 C 235.366 326.800,234.736 326.980,234.600 327.200 C 234.456 327.433,234.855 327.600,235.553 327.600 C 236.213 327.600,236.864 327.420,237.000 327.200 C 237.136 326.980,237.597 326.800,238.024 326.800 C 238.451 326.800,238.800 326.620,238.800 326.400 C 238.800 326.180,238.541 326.000,238.224 326.000 C 237.907 326.000,237.536 326.180,237.400 326.400 M231.600 328.000 C 231.600 328.220,232.140 328.400,232.800 328.400 C 233.460 328.400,234.000 328.220,234.000 328.000 C 234.000 327.780,233.460 327.600,232.800 327.600 C 232.140 327.600,231.600 327.780,231.600 328.000 M228.000 328.800 C 228.000 329.020,228.540 329.200,229.200 329.200 C 229.860 329.200,230.400 329.020,230.400 328.800 C 230.400 328.580,229.860 328.400,229.200 328.400 C 228.540 328.400,228.000 328.580,228.000 328.800 M174.000 329.556 C 174.000 329.944,175.093 330.167,176.700 330.107 C 176.975 330.097,177.200 330.225,177.200 330.392 C 177.200 330.558,178.228 330.718,179.485 330.747 C 180.742 330.776,182.137 330.899,182.585 331.019 C 183.395 331.237,183.395 331.235,182.600 330.730 C 182.160 330.450,180.720 330.089,179.400 329.926 C 178.080 329.764,176.325 329.514,175.500 329.372 C 174.512 329.201,174.000 329.264,174.000 329.556 M223.552 329.858 C 223.067 330.442,223.106 330.484,223.902 330.231 C 224.395 330.075,225.339 329.931,225.999 329.912 C 227.781 329.862,227.456 329.200,225.649 329.200 C 224.698 329.200,223.887 329.454,223.552 329.858 M219.004 330.393 C 218.856 330.633,219.549 330.769,220.781 330.741 C 221.891 330.716,222.800 330.539,222.800 330.348 C 222.800 329.866,219.304 329.908,219.004 330.393 M183.600 331.200 C 183.600 331.429,184.808 331.600,186.424 331.600 C 188.204 331.600,189.156 331.452,189.000 331.200 C 188.864 330.980,187.593 330.800,186.176 330.800 C 184.725 330.800,183.600 330.975,183.600 331.200 M211.000 331.180 C 210.475 331.393,211.196 331.517,213.100 331.542 C 214.742 331.563,216.000 331.411,216.000 331.190 C 216.000 330.725,212.142 330.718,211.000 331.180 M191.600 331.986 C 191.600 332.257,194.356 332.400,199.600 332.400 C 204.228 332.400,207.600 332.244,207.600 332.030 C 207.600 331.818,204.196 331.642,199.600 331.617 C 194.328 331.588,191.600 331.714,191.600 331.986 " stroke="none" fill="#998e2f" fill-rule="evenodd"></path><path id="path4" d="M189.000 68.000 C 188.860 68.226,189.188 68.400,189.753 68.400 C 190.303 68.400,190.864 68.220,191.000 68.000 C 191.140 67.774,190.812 67.600,190.247 67.600 C 189.697 67.600,189.136 67.780,189.000 68.000 M209.200 68.000 C 209.200 68.220,209.785 68.397,210.500 68.394 C 211.486 68.389,211.655 68.294,211.200 68.000 C 210.414 67.492,209.200 67.492,209.200 68.000 M181.852 68.885 C 182.127 69.329,183.105 69.277,183.398 68.803 C 183.540 68.574,183.223 68.440,182.651 68.488 C 182.105 68.533,181.745 68.712,181.852 68.885 M222.400 69.685 C 222.400 70.127,223.504 70.079,223.785 69.624 C 223.913 69.418,223.653 69.276,223.209 69.309 C 222.764 69.343,222.400 69.512,222.400 69.685 M172.000 70.400 C 172.783 70.906,173.600 70.906,173.600 70.400 C 173.600 70.180,173.105 70.003,172.500 70.006 C 171.643 70.011,171.532 70.098,172.000 70.400 M168.600 71.200 C 168.736 71.420,169.107 71.600,169.424 71.600 C 169.741 71.600,170.000 71.420,170.000 71.200 C 170.000 70.980,169.629 70.800,169.176 70.800 C 168.723 70.800,168.464 70.980,168.600 71.200 M229.851 71.283 C 229.959 71.457,230.407 71.600,230.847 71.600 C 231.287 71.600,231.543 71.431,231.416 71.225 C 231.288 71.019,230.840 70.877,230.420 70.908 C 229.999 70.940,229.744 71.109,229.851 71.283 M165.400 72.000 C 165.264 72.220,165.513 72.400,165.953 72.400 C 166.393 72.400,166.864 72.220,167.000 72.000 C 167.136 71.780,166.887 71.600,166.447 71.600 C 166.007 71.600,165.536 71.780,165.400 72.000 M161.846 72.725 C 161.753 72.876,162.109 73.026,162.638 73.058 C 163.167 73.089,163.600 72.993,163.600 72.843 C 163.600 72.479,162.062 72.376,161.846 72.725 M239.400 73.600 C 239.264 73.820,239.534 74.000,240.000 74.000 C 240.466 74.000,240.736 73.820,240.600 73.600 C 240.464 73.380,240.194 73.200,240.000 73.200 C 239.806 73.200,239.536 73.380,239.400 73.600 M157.200 74.400 C 157.200 74.620,157.470 74.800,157.800 74.800 C 158.130 74.800,158.400 74.620,158.400 74.400 C 158.400 74.180,158.130 74.000,157.800 74.000 C 157.470 74.000,157.200 74.180,157.200 74.400 M154.600 75.200 C 154.464 75.420,154.723 75.600,155.176 75.600 C 155.629 75.600,156.000 75.420,156.000 75.200 C 156.000 74.980,155.741 74.800,155.424 74.800 C 155.107 74.800,154.736 74.980,154.600 75.200 M152.651 75.917 C 152.544 76.091,152.803 76.260,153.228 76.292 C 153.652 76.324,154.000 76.181,154.000 75.975 C 154.000 75.520,152.925 75.473,152.651 75.917 M189.400 76.363 C 188.300 76.493,193.070 76.600,200.000 76.600 C 206.930 76.600,211.610 76.483,210.400 76.340 C 207.698 76.020,192.149 76.037,189.400 76.363 M182.200 77.211 C 181.472 77.402,182.102 77.441,183.800 77.309 C 185.340 77.189,186.675 77.025,186.767 76.945 C 187.073 76.678,183.416 76.891,182.200 77.211 M212.833 76.944 C 212.925 77.024,214.350 77.185,216.000 77.303 C 217.758 77.428,218.503 77.388,217.800 77.206 C 216.587 76.891,212.525 76.678,212.833 76.944 M177.200 78.013 C 176.554 78.229,176.980 78.266,178.400 78.119 C 179.610 77.994,180.675 77.826,180.767 77.746 C 181.087 77.465,178.191 77.683,177.200 78.013 M219.233 77.746 C 219.325 77.826,220.390 77.994,221.600 78.119 C 223.020 78.266,223.446 78.229,222.800 78.013 C 221.809 77.683,218.913 77.465,219.233 77.746 M146.600 78.400 C 146.464 78.620,146.623 78.800,146.953 78.800 C 147.283 78.800,147.664 78.620,147.800 78.400 C 147.936 78.180,147.777 78.000,147.447 78.000 C 147.117 78.000,146.736 78.180,146.600 78.400 M171.600 79.108 C 170.170 79.446,169.180 79.779,169.400 79.848 C 169.620 79.917,171.240 79.636,173.000 79.223 C 174.760 78.810,175.750 78.477,175.200 78.483 C 174.650 78.489,173.030 78.770,171.600 79.108 M224.033 78.547 C 224.125 78.628,224.920 78.804,225.800 78.938 C 226.915 79.107,227.158 79.071,226.600 78.819 C 225.832 78.471,223.690 78.244,224.033 78.547 M230.200 80.027 C 233.158 80.824,233.876 80.943,233.507 80.573 C 233.217 80.284,228.795 79.221,228.000 79.250 C 227.670 79.262,228.660 79.612,230.200 80.027 M165.000 80.949 C 160.183 82.438,154.343 84.477,154.486 84.620 C 154.562 84.695,157.858 83.697,161.812 82.403 C 165.765 81.108,168.730 80.056,168.400 80.066 C 168.070 80.076,166.540 80.473,165.000 80.949 M234.600 81.200 C 235.796 81.714,236.795 81.714,236.000 81.200 C 235.670 80.987,235.040 80.822,234.600 80.834 L 233.800 80.856 234.600 81.200 M238.600 82.418 C 239.700 82.848,240.777 83.141,240.993 83.069 C 241.413 82.929,237.746 81.587,237.029 81.619 C 236.793 81.629,237.500 81.989,238.600 82.418 M241.633 83.362 C 241.725 83.451,243.510 84.187,245.600 84.997 C 279.133 97.997,307.269 128.121,317.618 162.102 C 318.339 164.469,319.006 166.327,319.102 166.231 C 319.197 166.136,318.609 163.930,317.796 161.329 C 308.340 131.112,284.418 103.277,255.800 89.192 C 248.287 85.494,240.553 82.311,241.633 83.362 M149.200 86.752 C 120.589 99.785,98.015 122.769,85.896 151.206 C 84.026 155.593,80.778 164.904,80.831 165.724 C 80.848 165.986,81.722 163.680,82.773 160.600 C 85.875 151.513,90.316 141.822,93.642 136.880 C 94.279 135.934,94.800 135.067,94.800 134.953 C 94.800 134.288,101.793 124.603,105.338 120.358 C 117.882 105.336,130.588 95.979,152.400 85.698 C 153.390 85.231,154.020 84.847,153.800 84.844 C 153.580 84.841,151.510 85.699,149.200 86.752 M110.253 102.253 C 109.182 103.236,108.388 104.121,108.488 104.221 C 108.588 104.321,109.534 103.587,110.589 102.589 C 111.645 101.592,112.439 100.706,112.354 100.621 C 112.269 100.535,111.323 101.270,110.253 102.253 M288.400 101.367 C 288.400 101.788,289.605 102.928,289.821 102.712 C 289.922 102.611,289.644 102.202,289.202 101.802 C 288.761 101.403,288.400 101.207,288.400 101.367 M290.800 103.725 C 290.800 103.870,292.330 105.519,294.200 107.389 C 298.010 111.199,298.869 111.525,295.284 107.800 C 292.515 104.923,290.800 103.364,290.800 103.725 M103.308 109.108 C 102.598 109.901,102.100 110.633,102.202 110.736 C 102.415 110.948,104.784 108.356,104.794 107.900 C 104.803 107.463,104.728 107.524,103.308 109.108 M180.700 122.693 C 181.635 122.777,183.165 122.777,184.100 122.693 C 185.035 122.609,184.270 122.540,182.400 122.540 C 180.530 122.540,179.765 122.609,180.700 122.693 M192.833 122.550 C 192.925 122.632,195.700 122.792,199.000 122.904 C 202.866 123.036,203.933 123.001,202.000 122.807 C 198.754 122.480,192.562 122.306,192.833 122.550 M175.100 123.089 C 175.815 123.178,176.985 123.178,177.700 123.089 C 178.415 123.001,177.830 122.928,176.400 122.928 C 174.970 122.928,174.385 123.001,175.100 123.089 M170.400 123.600 C 169.050 123.884,169.043 123.895,170.200 123.900 C 170.860 123.903,171.940 123.768,172.600 123.600 C 174.260 123.178,172.407 123.178,170.400 123.600 M208.305 123.883 C 208.802 123.979,209.522 123.975,209.905 123.875 C 210.287 123.775,209.880 123.696,209.000 123.701 C 208.120 123.705,207.807 123.787,208.305 123.883 M212.000 124.380 C 212.999 124.720,215.482 124.932,215.167 124.651 C 215.075 124.569,214.100 124.399,213.000 124.272 C 211.651 124.116,211.326 124.151,212.000 124.380 M162.480 125.195 C 161.754 125.367,161.047 125.620,160.909 125.758 C 160.612 126.055,163.054 125.615,164.200 125.165 C 165.220 124.764,164.224 124.782,162.480 125.195 M216.200 125.200 C 216.640 125.389,217.360 125.538,217.800 125.532 C 218.443 125.523,218.404 125.457,217.600 125.200 C 216.232 124.762,215.181 124.762,216.200 125.200 M218.897 125.831 C 219.029 125.962,219.736 126.222,220.468 126.408 C 223.893 127.277,223.864 127.273,222.600 126.688 C 221.303 126.087,218.506 125.439,218.897 125.831 M156.894 127.196 C 154.140 128.471,149.985 131.553,149.005 133.048 C 148.661 133.573,147.623 134.481,146.698 135.065 C 144.870 136.218,143.888 137.306,142.505 139.709 C 138.468 146.722,137.592 158.304,137.594 204.600 C 137.596 251.629,138.891 267.105,143.439 274.437 C 147.653 281.230,158.358 284.027,175.600 282.840 C 187.216 282.040,191.735 281.065,193.913 278.887 C 194.315 278.485,195.690 277.732,196.969 277.213 C 203.950 274.379,206.040 270.546,205.919 260.800 L 205.847 255.000 205.590 261.400 C 204.990 276.381,199.455 279.501,174.200 279.094 C 161.818 278.895,157.143 277.887,151.872 274.278 C 144.512 269.239,142.707 255.062,142.694 202.200 C 142.680 140.437,144.112 133.209,157.523 127.353 C 159.215 126.614,160.330 126.016,160.000 126.023 C 159.670 126.031,158.272 126.559,156.894 127.196 M227.200 128.489 C 246.225 136.761,257.015 147.626,264.448 166.000 C 265.294 168.090,265.989 169.505,265.993 169.145 C 266.002 168.278,263.049 161.514,260.691 157.000 C 254.775 145.675,242.725 134.737,230.357 129.467 C 228.463 128.660,226.753 128.012,226.557 128.027 C 226.361 128.042,226.650 128.250,227.200 128.489 M326.800 163.800 C 326.800 164.130,326.980 164.400,327.200 164.400 C 327.420 164.400,327.600 164.130,327.600 163.800 C 327.600 163.470,327.420 163.200,327.200 163.200 C 326.980 163.200,326.800 163.470,326.800 163.800 M80.273 166.953 C 80.123 167.345,80.011 167.966,80.025 168.333 C 80.042 168.775,80.181 168.674,80.437 168.034 C 80.649 167.503,80.761 166.882,80.685 166.654 C 80.609 166.427,80.424 166.561,80.273 166.953 M319.256 167.200 C 319.256 167.530,319.411 168.160,319.600 168.600 C 319.817 169.104,319.944 169.178,319.944 168.800 C 319.944 168.470,319.789 167.840,319.600 167.400 C 319.383 166.896,319.256 166.822,319.256 167.200 M79.415 170.600 C 79.256 171.480,78.964 172.830,78.766 173.600 C 78.567 174.370,78.417 175.450,78.432 176.000 C 78.447 176.550,78.808 175.384,79.233 173.409 C 79.658 171.434,79.938 169.634,79.854 169.409 C 79.771 169.184,79.573 169.720,79.415 170.600 M320.068 170.200 C 320.062 170.640,320.211 171.360,320.400 171.800 C 320.838 172.819,320.838 171.768,320.400 170.400 C 320.143 169.596,320.077 169.557,320.068 170.200 M266.244 171.000 C 266.573 172.471,266.802 172.790,266.794 171.767 C 266.791 171.345,266.605 170.730,266.382 170.400 C 266.085 169.962,266.048 170.124,266.244 171.000 M267.058 174.000 C 267.375 175.725,267.602 176.051,267.594 174.767 C 267.591 174.235,267.411 173.530,267.194 173.200 C 266.918 172.778,266.877 173.015,267.058 174.000 M321.072 174.600 C 321.199 175.700,321.369 176.675,321.451 176.767 C 321.732 177.082,321.520 174.599,321.180 173.600 C 320.951 172.926,320.916 173.251,321.072 174.600 M267.852 177.400 C 268.306 180.442,268.794 182.014,268.535 179.600 C 268.405 178.390,268.144 177.040,267.956 176.600 C 267.730 176.073,267.694 176.345,267.852 177.400 M77.869 178.356 C 77.721 179.095,77.620 180.083,77.644 180.550 C 77.668 181.018,77.847 180.590,78.042 179.600 C 78.237 178.610,78.338 177.623,78.267 177.406 C 78.196 177.190,78.017 177.617,77.869 178.356 M321.881 179.200 C 322.006 180.410,322.174 181.475,322.254 181.567 C 322.535 181.887,322.317 178.991,321.987 178.000 C 321.771 177.354,321.734 177.780,321.881 179.200 M201.405 177.980 L 197.811 178.200 197.528 179.800 C 197.373 180.680,197.257 182.030,197.270 182.800 L 197.295 184.200 197.550 183.000 L 197.806 181.800 201.047 181.685 C 206.870 181.478,212.863 185.275,209.100 186.788 C 208.594 186.991,208.462 187.159,208.800 187.171 C 211.178 187.256,214.800 184.461,214.800 182.541 C 214.800 178.923,210.414 177.429,201.405 177.980 M77.059 183.088 C 76.921 183.919,76.830 185.320,76.856 186.200 C 76.887 187.247,77.023 186.773,77.248 184.830 C 77.611 181.696,77.483 180.519,77.059 183.088 M268.934 184.800 C 268.934 186.450,269.005 187.125,269.091 186.300 C 269.178 185.475,269.178 184.125,269.091 183.300 C 269.005 182.475,268.934 183.150,268.934 184.800 M322.697 185.400 C 322.815 187.380,322.976 189.075,323.056 189.167 C 323.335 189.490,323.150 184.980,322.818 183.400 C 322.590 182.312,322.551 182.952,322.697 185.400 M196.853 186.457 C 196.799 187.942,197.297 188.446,198.733 188.360 C 199.108 188.338,198.962 188.199,198.400 188.043 C 197.656 187.837,197.337 187.412,197.153 186.383 L 196.905 185.000 196.853 186.457 M203.000 187.600 L 200.600 187.866 202.600 187.910 C 203.700 187.934,205.320 187.805,206.200 187.623 C 208.201 187.209,206.636 187.198,203.000 187.600 M76.509 189.600 C 76.509 190.590,76.587 190.995,76.682 190.500 C 76.778 190.005,76.778 189.195,76.682 188.700 C 76.587 188.205,76.509 188.610,76.509 189.600 M323.400 200.400 C 323.400 206.450,323.514 210.230,323.653 208.800 C 323.986 205.380,323.991 194.392,323.660 191.600 C 323.517 190.390,323.400 194.350,323.400 200.400 M268.846 193.274 C 268.821 194.964,268.527 197.646,268.193 199.233 C 267.492 202.564,267.680 203.514,268.409 200.328 C 268.967 197.885,269.387 192.147,269.092 190.985 C 268.982 190.553,268.872 191.583,268.846 193.274 M76.078 199.200 C 76.087 203.490,76.214 208.170,76.362 209.600 C 76.509 211.030,76.564 207.700,76.483 202.200 C 76.403 196.700,76.275 192.020,76.200 191.800 C 76.125 191.580,76.070 194.910,76.078 199.200 M331.765 199.800 C 331.766 203.760,331.826 205.326,331.898 203.280 C 331.971 201.234,331.971 197.994,331.898 196.080 C 331.824 194.166,331.765 195.840,331.765 199.800 M266.725 205.096 C 266.354 206.355,266.111 207.444,266.185 207.518 C 266.399 207.733,267.679 203.637,267.533 203.203 C 267.460 202.986,267.096 203.838,266.725 205.096 M264.811 210.330 C 257.216 227.754,237.785 238.361,213.130 238.542 L 205.260 238.600 204.985 241.866 C 204.834 243.663,204.807 245.373,204.924 245.666 C 205.041 245.960,205.151 245.255,205.168 244.100 C 205.199 242.096,205.250 241.998,206.300 241.951 C 206.905 241.923,209.353 241.852,211.741 241.792 C 218.336 241.625,221.855 241.052,229.000 238.981 C 235.888 236.984,238.770 235.553,249.000 229.046 C 255.632 224.828,266.899 211.103,265.930 208.421 C 265.859 208.223,265.355 209.082,264.811 210.330 M322.865 213.000 C 322.825 213.880,322.706 215.320,322.602 216.200 L 322.412 217.800 322.823 216.200 C 323.048 215.320,323.167 213.880,323.086 213.000 L 322.940 211.400 322.865 213.000 M76.858 213.600 C 76.786 215.211,78.024 223.709,78.292 223.442 C 78.390 223.344,78.185 221.314,77.837 218.932 C 77.489 216.549,77.140 214.060,77.062 213.400 C 76.928 212.273,76.916 212.285,76.858 213.600 M331.100 214.631 C 330.935 214.797,330.800 215.299,330.800 215.747 C 330.800 216.335,330.921 216.439,331.238 216.122 C 331.478 215.882,331.613 215.380,331.538 215.007 C 331.462 214.633,331.265 214.464,331.100 214.631 M322.060 218.850 C 322.027 219.428,321.911 220.507,321.801 221.250 L 321.603 222.600 322.024 221.257 C 322.255 220.519,322.372 219.439,322.282 218.857 L 322.120 217.800 322.060 218.850 M321.055 224.655 C 320.913 225.686,320.874 226.608,320.969 226.702 C 321.063 226.796,321.265 226.039,321.418 225.018 C 321.571 223.998,321.610 223.076,321.504 222.971 C 321.398 222.865,321.196 223.623,321.055 224.655 M78.440 224.600 C 78.412 225.296,78.999 227.762,80.847 234.715 C 81.098 235.659,81.384 236.350,81.482 236.251 C 81.581 236.152,81.261 234.660,80.772 232.936 C 80.282 231.211,79.564 228.450,79.177 226.800 C 78.790 225.150,78.458 224.160,78.440 224.600 M320.250 228.450 C 320.109 229.153,320.069 229.802,320.159 229.892 C 320.250 229.983,320.448 229.491,320.600 228.800 C 320.752 228.109,320.793 227.459,320.691 227.358 C 320.589 227.256,320.391 227.747,320.250 228.450 M319.450 231.650 C 319.309 232.353,319.269 233.002,319.359 233.092 C 319.450 233.183,319.648 232.691,319.800 232.000 C 319.952 231.309,319.993 230.659,319.891 230.558 C 319.789 230.456,319.591 230.947,319.450 231.650 M317.843 237.043 C 317.231 238.924,316.800 240.534,316.886 240.620 C 316.972 240.706,317.544 239.237,318.157 237.357 C 318.769 235.476,319.200 233.866,319.114 233.780 C 319.028 233.694,318.456 235.163,317.843 237.043 M81.629 237.029 C 81.588 237.633,82.857 241.276,83.044 241.090 C 83.128 241.005,82.851 239.960,82.428 238.768 C 82.005 237.576,81.645 236.793,81.629 237.029 M315.600 243.690 C 303.215 277.692,274.687 304.938,238.400 317.419 C 235.650 318.365,233.601 319.153,233.847 319.169 C 234.733 319.230,245.903 315.219,250.400 313.225 C 273.202 303.116,293.081 285.430,306.630 263.200 C 310.193 257.353,317.299 241.966,316.708 241.375 C 316.602 241.268,316.103 242.310,315.600 243.690 M83.200 241.939 C 83.200 242.548,87.187 251.574,89.460 256.112 C 103.454 284.041,129.228 306.655,158.617 316.789 C 161.187 317.675,163.494 318.391,163.744 318.380 C 163.995 318.368,161.770 317.496,158.800 316.442 C 151.763 313.943,145.886 311.247,138.041 306.920 C 116.005 294.767,96.512 272.491,85.781 247.200 C 83.378 241.537,83.200 241.174,83.200 241.939 M205.342 251.000 C 205.341 252.980,205.408 253.840,205.492 252.912 C 205.576 251.984,205.577 250.364,205.495 249.312 C 205.412 248.260,205.343 249.020,205.342 251.000 M166.200 319.200 C 167.300 319.606,168.560 319.936,169.000 319.933 C 169.440 319.929,168.720 319.586,167.400 319.169 C 164.355 318.207,163.565 318.228,166.200 319.200 M231.200 319.600 C 230.396 319.857,230.357 319.923,231.000 319.932 C 231.440 319.938,232.160 319.789,232.600 319.600 C 233.619 319.162,232.568 319.162,231.200 319.600 M170.002 320.115 C 170.303 320.446,175.515 321.605,176.525 321.566 C 177.006 321.548,176.320 321.290,175.000 320.992 C 171.058 320.104,169.789 319.882,170.002 320.115 M224.400 321.017 C 221.870 321.535,219.350 321.983,218.800 322.012 C 218.250 322.040,218.022 322.153,218.294 322.263 C 218.936 322.522,229.480 320.653,229.934 320.200 C 230.260 319.873,229.245 320.023,224.400 321.017 M178.600 321.980 C 179.834 322.315,182.664 322.518,182.367 322.250 C 182.275 322.168,181.120 322.000,179.800 321.877 C 178.222 321.730,177.811 321.765,178.600 321.980 M184.200 322.814 C 185.784 323.150,189.888 323.335,189.567 323.055 C 189.475 322.975,187.870 322.812,186.000 322.692 C 183.627 322.540,183.083 322.577,184.200 322.814 M212.800 322.800 L 210.200 323.062 212.400 323.108 C 213.610 323.133,215.320 323.005,216.200 322.823 C 218.184 322.413,216.742 322.403,212.800 322.800 M192.600 323.614 C 195.535 323.914,205.454 324.105,205.167 323.856 C 205.075 323.776,201.580 323.625,197.400 323.520 C 193.220 323.414,191.060 323.457,192.600 323.614 M206.707 323.490 C 207.426 323.579,208.506 323.577,209.107 323.486 C 209.708 323.395,209.120 323.322,207.800 323.324 C 206.480 323.326,205.988 323.401,206.707 323.490 " stroke="none" fill="#ccb42a" fill-rule="evenodd"></path></g></svg>